M48
;Layer_Color=9474304
;FILE_FORMAT=4:3
METRIC,LZ
;TYPE=PLATED
T1F00S00C0.500
T2F00S00C0.900
T3F00S00C1.000
T4F00S00C1.400
T5F00S00C6.000
%
T01
X003385Y00015
X00502Y000155
X00179Y00015
X00015
X00018Y002275
Y003325
X0010146Y0032529
X00123Y003415
X0014777Y00342
X0014963Y00355
X0014777Y0037575
X0016477Y0040201
X0017727Y00417
X001715Y004395
X001975Y004585
X0021077Y0040669
X0022877Y0033
X0024227Y00271
X001605Y00279
X0017941Y002245
X0034Y002339
Y00204
X003895Y00257
X003895Y002926
X00417Y0030925
X00435Y003101
X00442Y003505
X00504Y0037109
X004675Y004431
X0033251Y00395
X003385Y00357
X004205Y00237
X004685Y002359
X004873Y001975
X004845Y00523
X0046379Y0052333
X0050774Y00552
X00486Y0059554
X004975Y00685
X003945Y0068689
X0034364Y00687
X003395Y0055832
X003235Y0055632
X00299Y00569
X002435Y0058054
X0036975Y0057429
X0035125Y0049303
X00333Y005011
X002295Y00591
X002355Y0061474
X00179Y0065369
Y0070159
X0009644Y0067019
X00097Y0064
X0006875Y0066375
X000125Y0064529
X00009Y005115
T02
X005Y001721
Y001975
Y00237
Y002624
X001624Y0065369
X00137
X001116
Y0067909
X00137
X001624
T03
X003673Y0074
X003927
X004373
X004627
T04
X00302Y0066
X00218
T05
X0026Y008
M30
