M48
;Layer_Color=9474304
;FILE_FORMAT=4:3
METRIC,LZ
;TYPE=PLATED
T1F00S00C0.500
T3F00S00C0.900
T4F00S00C1.100
%
T01
X00027Y000275
X001925Y00027
X001875Y000945
X0017039Y000795
X0016205Y0013828
X001355Y001345
X0016394Y0017654
X001505Y001945
X0019654Y00218
X0020904Y002815
X001365Y002745
X0008854Y00292
X0006854Y002915
X0003475Y00257
X00045Y002445
X00012Y002365
X000155Y0012
X00056Y00115
X000815Y00105
X00075Y000715
X00012Y00363
X002115Y00442
X00159Y00508
X001235Y004955
X00012Y00494
T03
X0002Y0017
Y001954
X00089Y002435
Y002689
T04
X000875Y00027
X001325
M30
