G04 Layer_Color=8388736*
%FSLAX43Y43*%
%MOMM*%
G71*
G01*
G75*
%ADD33R,1.503X3.003*%
%ADD34R,1.193X0.923*%
%ADD35R,1.100X1.100*%
%ADD36R,1.400X1.100*%
%ADD37R,1.203X1.103*%
%ADD38R,1.203X1.203*%
%ADD39R,1.503X1.703*%
%ADD40R,2.003X1.503*%
%ADD41R,1.503X2.003*%
%ADD42R,1.103X1.203*%
%ADD43R,1.203X1.203*%
%ADD44R,1.603X2.403*%
%ADD45R,1.403X2.203*%
%ADD46C,1.703*%
%ADD47R,1.703X1.703*%
%ADD48O,1.503X3.403*%
%ADD49C,1.203*%
%ADD50C,1.303*%
G36*
X11983Y21085D02*
X11275D01*
Y22758D01*
X11983D01*
Y21085D01*
D02*
G37*
G36*
X11196D02*
X10488D01*
Y22758D01*
X11196D01*
Y21085D01*
D02*
G37*
G36*
X10383D02*
X9675D01*
Y22758D01*
X10383D01*
Y21085D01*
D02*
G37*
G36*
X9596D02*
X8888D01*
Y22758D01*
X9596D01*
Y21085D01*
D02*
G37*
G36*
X8783D02*
X8075D01*
Y22758D01*
X8783D01*
Y21085D01*
D02*
G37*
G36*
X7995D02*
X7287D01*
Y22758D01*
X7995D01*
Y21085D01*
D02*
G37*
G36*
X7183D02*
X6475D01*
Y22758D01*
X7183D01*
Y21085D01*
D02*
G37*
G36*
X6395D02*
X5687D01*
Y22758D01*
X6395D01*
Y21085D01*
D02*
G37*
G36*
X13787Y20247D02*
X12113D01*
Y20955D01*
X13787D01*
Y20247D01*
D02*
G37*
G36*
X5557D02*
X3884D01*
Y20955D01*
X5557D01*
Y20247D01*
D02*
G37*
G36*
X13787Y19459D02*
X12113D01*
Y20167D01*
X13787D01*
Y19459D01*
D02*
G37*
G36*
X5557D02*
X3884D01*
Y20167D01*
X5557D01*
Y19459D01*
D02*
G37*
G36*
X13787Y18646D02*
X12113D01*
Y19354D01*
X13787D01*
Y18646D01*
D02*
G37*
G36*
X5557D02*
X3884D01*
Y19354D01*
X5557D01*
Y18646D01*
D02*
G37*
G36*
X13787Y17859D02*
X12113D01*
Y18567D01*
X13787D01*
Y17859D01*
D02*
G37*
G36*
X5557D02*
X3884D01*
Y18567D01*
X5557D01*
Y17859D01*
D02*
G37*
G36*
X13787Y17046D02*
X12113D01*
Y17754D01*
X13787D01*
Y17046D01*
D02*
G37*
G36*
X5557D02*
X3884D01*
Y17754D01*
X5557D01*
Y17046D01*
D02*
G37*
G36*
X13787Y16259D02*
X12113D01*
Y16967D01*
X13787D01*
Y16259D01*
D02*
G37*
G36*
X5557D02*
X3884D01*
Y16967D01*
X5557D01*
Y16259D01*
D02*
G37*
G36*
X13787Y15446D02*
X12113D01*
Y16154D01*
X13787D01*
Y15446D01*
D02*
G37*
G36*
X5557D02*
X3884D01*
Y16154D01*
X5557D01*
Y15446D01*
D02*
G37*
G36*
X13787Y14659D02*
X12113D01*
Y15367D01*
X13787D01*
Y14659D01*
D02*
G37*
G36*
X5557D02*
X3884D01*
Y15367D01*
X5557D01*
Y14659D01*
D02*
G37*
G36*
X11983Y12855D02*
X11275D01*
Y14528D01*
X11983D01*
Y12855D01*
D02*
G37*
G36*
X11196D02*
X10488D01*
Y14528D01*
X11196D01*
Y12855D01*
D02*
G37*
G36*
X10383D02*
X9675D01*
Y14528D01*
X10383D01*
Y12855D01*
D02*
G37*
G36*
X9596D02*
X8888D01*
Y14528D01*
X9596D01*
Y12855D01*
D02*
G37*
G36*
X8783D02*
X8075D01*
Y14528D01*
X8783D01*
Y12855D01*
D02*
G37*
G36*
X7995D02*
X7287D01*
Y14528D01*
X7995D01*
Y12855D01*
D02*
G37*
G36*
X7183D02*
X6475D01*
Y14528D01*
X7183D01*
Y12855D01*
D02*
G37*
G36*
X6395D02*
X5687D01*
Y14528D01*
X6395D01*
Y12855D01*
D02*
G37*
D33*
X10854Y46600D02*
D03*
X12854D02*
D03*
X6854D02*
D03*
X8854D02*
D03*
X14854D02*
D03*
X18854D02*
D03*
X16854D02*
D03*
X16854Y31000D02*
D03*
X18854D02*
D03*
X14854D02*
D03*
X8854D02*
D03*
X6854D02*
D03*
X10854D02*
D03*
X12854D02*
D03*
D34*
X11300Y8780D02*
D03*
Y7400D02*
D03*
X10000Y8780D02*
D03*
Y7400D02*
D03*
D35*
X13250Y10850D02*
D03*
Y7650D02*
D03*
D36*
X16200Y25250D02*
D03*
Y22950D02*
D03*
X14400Y25250D02*
D03*
Y22950D02*
D03*
D37*
X11196Y24350D02*
D03*
Y26050D02*
D03*
X12750Y25250D02*
D03*
Y26950D02*
D03*
X3000Y14750D02*
D03*
Y13050D02*
D03*
D38*
X6539Y11650D02*
D03*
X8139D02*
D03*
X13350Y12550D02*
D03*
X14950D02*
D03*
D39*
X20450Y11050D02*
D03*
X18750D02*
D03*
X17954Y20347D02*
D03*
X19654D02*
D03*
D40*
X15350Y7950D02*
D03*
X15350Y10850D02*
D03*
D41*
X13550Y49550D02*
D03*
X16450D02*
D03*
D42*
X16200Y26950D02*
D03*
X14500D02*
D03*
D43*
X1500Y14700D02*
D03*
Y13100D02*
D03*
X15073Y18500D02*
D03*
Y16900D02*
D03*
D44*
X17950Y13300D02*
D03*
Y18100D02*
D03*
X20450D02*
D03*
Y13300D02*
D03*
D45*
X14500Y5300D02*
D03*
X12000D02*
D03*
X7500D02*
D03*
X10000D02*
D03*
D46*
X2000Y19540D02*
D03*
X8900Y26890D02*
D03*
D47*
X2000Y17000D02*
D03*
X8900Y24350D02*
D03*
D48*
X16850Y2700D02*
D03*
X5150D02*
D03*
D49*
X21150Y44200D02*
D03*
X15900Y50800D02*
D03*
X4500Y24450D02*
D03*
X3475Y25700D02*
D03*
X1550Y12000D02*
D03*
X2700Y2750D02*
D03*
X15050Y19450D02*
D03*
X16394Y17654D02*
D03*
X8150Y10500D02*
D03*
X13650Y27450D02*
D03*
X13550Y13450D02*
D03*
X6854Y29150D02*
D03*
X1200Y36300D02*
D03*
X20904Y28150D02*
D03*
X19654Y21800D02*
D03*
X1200Y49400D02*
D03*
X18750Y9450D02*
D03*
X16205Y13828D02*
D03*
X19250Y2700D02*
D03*
X12350Y49550D02*
D03*
X8854Y29200D02*
D03*
X5600Y11500D02*
D03*
X7500Y7150D02*
D03*
X1200Y23650D02*
D03*
X17039Y7950D02*
D03*
D50*
X13250Y2700D02*
D03*
X8750D02*
D03*
M02*
