G04 Layer_Color=16711935*
%FSLAX43Y43*%
%MOMM*%
G71*
G01*
G75*
%ADD49C,1.703*%
%ADD50R,1.703X1.703*%
%ADD51R,1.703X1.703*%
%ADD52C,2.603*%
%ADD53C,2.003*%
%ADD54C,1.203*%
%ADD55C,6.203*%
%ADD56R,1.503X2.003*%
%ADD57R,1.203X1.103*%
%ADD58R,1.203X1.203*%
%ADD59R,1.103X1.203*%
%ADD60R,0.803X1.053*%
%ADD61R,1.203X1.203*%
%ADD62R,2.003X1.503*%
%ADD63R,1.603X1.403*%
%ADD64R,1.193X0.923*%
%ADD65R,1.100X1.100*%
%ADD66R,2.903X1.503*%
%ADD67O,2.103X0.803*%
%ADD68R,1.503X0.803*%
%ADD69R,2.403X1.703*%
%ADD70R,0.803X1.503*%
%ADD71R,1.703X1.503*%
%ADD72R,0.923X1.193*%
%ADD73R,1.503X3.003*%
%ADD74O,1.300X0.400*%
%ADD75R,1.300X0.400*%
D49*
X11160Y65369D02*
D03*
Y67909D02*
D03*
X13700Y65369D02*
D03*
Y67909D02*
D03*
X16240Y65369D02*
D03*
X50000Y26240D02*
D03*
Y17210D02*
D03*
D50*
X16240Y67909D02*
D03*
D51*
X50000Y23700D02*
D03*
Y19750D02*
D03*
D52*
X21800Y66000D02*
D03*
X30200D02*
D03*
D53*
X39270Y74000D02*
D03*
X36730D02*
D03*
X46270D02*
D03*
X43730D02*
D03*
D54*
X42050Y23700D02*
D03*
X38950Y25700D02*
D03*
X46379Y52333D02*
D03*
X34000Y23390D02*
D03*
X35125Y49303D02*
D03*
X9700Y64000D02*
D03*
X6875Y66375D02*
D03*
X17900Y70159D02*
D03*
Y65369D02*
D03*
X24350Y58054D02*
D03*
X22950Y59100D02*
D03*
X19750Y45850D02*
D03*
X17150Y43950D02*
D03*
X900Y51150D02*
D03*
X1800Y33250D02*
D03*
X22877Y33000D02*
D03*
X16050Y27900D02*
D03*
X12300Y34150D02*
D03*
X14777Y37575D02*
D03*
X16477Y40201D02*
D03*
X21077Y40669D02*
D03*
X14963Y35500D02*
D03*
X33300Y50110D02*
D03*
X29900Y56900D02*
D03*
X9644Y67019D02*
D03*
X46850Y23590D02*
D03*
X33251Y39500D02*
D03*
X23550Y61474D02*
D03*
X39450Y68689D02*
D03*
X50774Y55200D02*
D03*
X34364Y68700D02*
D03*
X48600Y59554D02*
D03*
X50400Y37109D02*
D03*
X1250Y64529D02*
D03*
X17727Y41700D02*
D03*
X46750Y44310D02*
D03*
X1800Y22750D02*
D03*
X34000Y20400D02*
D03*
X49750Y68500D02*
D03*
X1500Y1500D02*
D03*
X33850D02*
D03*
X17900D02*
D03*
X50200Y1550D02*
D03*
X17941Y22450D02*
D03*
X10146Y32529D02*
D03*
X24227Y27100D02*
D03*
X43500Y31010D02*
D03*
X41700Y30925D02*
D03*
X38950Y29260D02*
D03*
X48730Y19750D02*
D03*
X33850Y35700D02*
D03*
X33950Y55832D02*
D03*
X36975Y57429D02*
D03*
X32350Y55632D02*
D03*
X44200Y35050D02*
D03*
X14777Y34200D02*
D03*
X48450Y52300D02*
D03*
D55*
X26000Y80000D02*
D03*
D56*
X6850Y65160D02*
D03*
X9750D02*
D03*
X41850Y53154D02*
D03*
X44750Y53154D02*
D03*
X49870Y54054D02*
D03*
X46970Y54054D02*
D03*
X49870Y56354D02*
D03*
X46970D02*
D03*
D57*
X36730Y71850D02*
D03*
Y70150D02*
D03*
X43730Y71850D02*
D03*
Y70150D02*
D03*
X13777Y35900D02*
D03*
Y34200D02*
D03*
D58*
X32350Y53082D02*
D03*
Y54682D02*
D03*
X23264Y27100D02*
D03*
Y25500D02*
D03*
X37000Y60054D02*
D03*
Y61654D02*
D03*
X46800Y31250D02*
D03*
X46800Y29650D02*
D03*
X32350Y58236D02*
D03*
Y56636D02*
D03*
D59*
X35500Y59854D02*
D03*
X33800D02*
D03*
X35500Y51882D02*
D03*
X33800D02*
D03*
X35500Y58236D02*
D03*
X33800D02*
D03*
X37550Y63454D02*
D03*
X39250Y63454D02*
D03*
X34250Y66200D02*
D03*
X32550Y66200D02*
D03*
X35500Y54882D02*
D03*
X33800Y54882D02*
D03*
X46200Y58804D02*
D03*
X47900D02*
D03*
D60*
X34250Y64954D02*
D03*
X36150D02*
D03*
X35200Y62804D02*
D03*
D61*
X35450Y56754D02*
D03*
X33850D02*
D03*
X46250Y60304D02*
D03*
X47850D02*
D03*
X37600Y64954D02*
D03*
X39200D02*
D03*
X16666Y30100D02*
D03*
X18266Y30100D02*
D03*
X12500Y35900D02*
D03*
X10900D02*
D03*
X35450Y53382D02*
D03*
X33850Y53382D02*
D03*
D62*
X16683Y24200D02*
D03*
X16683Y27100D02*
D03*
D63*
X4500Y66319D02*
D03*
Y64719D02*
D03*
D64*
X45250Y28610D02*
D03*
Y27230D02*
D03*
Y29760D02*
D03*
Y31140D02*
D03*
X8500Y41389D02*
D03*
Y42769D02*
D03*
D65*
X39500Y34550D02*
D03*
X39500Y31350D02*
D03*
X47750Y23390D02*
D03*
Y26590D02*
D03*
D66*
X42600Y34810D02*
D03*
X42600Y31910D02*
D03*
D67*
X21366Y39350D02*
D03*
Y38080D02*
D03*
Y36810D02*
D03*
Y35540D02*
D03*
Y34270D02*
D03*
Y33000D02*
D03*
Y31730D02*
D03*
X16666Y39350D02*
D03*
Y38080D02*
D03*
Y36810D02*
D03*
Y35540D02*
D03*
X16666Y34270D02*
D03*
X16666Y33000D02*
D03*
Y31730D02*
D03*
D68*
X21377Y27100D02*
D03*
Y26150D02*
D03*
Y25200D02*
D03*
X18977D02*
D03*
Y27100D02*
D03*
D69*
X34250Y31350D02*
D03*
X34250Y25050D02*
D03*
D70*
X40990Y29400D02*
D03*
X41940D02*
D03*
X42890D02*
D03*
Y27000D02*
D03*
X40990Y27000D02*
D03*
D71*
X38900Y26600D02*
D03*
Y28300D02*
D03*
D72*
X41510Y25350D02*
D03*
X42890D02*
D03*
D73*
X12500Y61600D02*
D03*
X10500D02*
D03*
X16500D02*
D03*
X14500D02*
D03*
X8500D02*
D03*
X4500D02*
D03*
X6500D02*
D03*
X6500Y46000D02*
D03*
X4500D02*
D03*
X8500D02*
D03*
X14500D02*
D03*
X16500D02*
D03*
X12500D02*
D03*
X10500D02*
D03*
D74*
X44750Y55896D02*
D03*
Y56531D02*
D03*
Y57166D02*
D03*
Y57801D02*
D03*
Y58436D02*
D03*
Y59071D02*
D03*
Y59706D02*
D03*
Y60341D02*
D03*
Y60976D02*
D03*
Y61611D02*
D03*
X39250D02*
D03*
Y60976D02*
D03*
Y60341D02*
D03*
Y59706D02*
D03*
Y59071D02*
D03*
Y58436D02*
D03*
Y57801D02*
D03*
Y57166D02*
D03*
Y56531D02*
D03*
D75*
Y55896D02*
D03*
M02*
