G04 Layer_Physical_Order=2*
G04 Layer_Color=16711680*
%FSLAX43Y43*%
%MOMM*%
G71*
G01*
G75*
%ADD12C,0.500*%
%ADD13C,0.400*%
%ADD16C,1.000*%
%ADD19C,1.800*%
%ADD20C,2.400*%
%ADD21R,1.500X1.500*%
%ADD22C,1.500*%
%ADD23R,1.500X1.500*%
%ADD24C,1.000*%
%ADD25C,6.000*%
%ADD26R,1.200X0.300*%
%ADD27O,1.200X0.300*%
%ADD28R,1.300X2.800*%
%ADD29R,0.990X0.720*%
%ADD30R,0.720X0.990*%
%ADD31R,1.000X1.000*%
%ADD32R,1.000X1.000*%
%ADD33R,1.000X0.900*%
%ADD34R,0.600X1.200*%
%ADD35R,1.500X1.300*%
%ADD36R,0.600X1.300*%
%ADD37R,2.200X1.500*%
%ADD38R,1.300X0.600*%
%ADD39O,1.900X0.600*%
%ADD40R,2.700X1.300*%
%ADD41R,1.300X1.800*%
%ADD42R,1.400X1.200*%
%ADD43R,1.800X1.300*%
%ADD44R,0.900X1.000*%
%ADD45R,0.600X0.850*%
%ADD46C,0.350*%
%ADD47C,0.300*%
G36*
X51881Y119D02*
X119D01*
Y65483D01*
X3500Y65483D01*
Y63819D01*
X3693D01*
Y63300D01*
X3550D01*
Y59900D01*
X5450D01*
Y59900D01*
X5550D01*
Y59900D01*
X7450D01*
Y63300D01*
X7061D01*
Y63960D01*
X7800D01*
Y66360D01*
X7800Y66360D01*
X7800D01*
X7847Y66469D01*
X8190Y66897D01*
X10891Y69598D01*
X17322D01*
X17329Y69588D01*
X17497Y69460D01*
X17691Y69379D01*
X17900Y69352D01*
X18109Y69379D01*
X18303Y69460D01*
X18471Y69588D01*
X18478Y69598D01*
X35930D01*
Y69400D01*
X37530D01*
Y69589D01*
X42930D01*
Y69400D01*
X44530D01*
Y70400D01*
X51881D01*
Y119D01*
D02*
G37*
%LPC*%
G36*
X11160Y68968D02*
X10886Y68932D01*
X10630Y68826D01*
X10411Y68658D01*
X10243Y68438D01*
X10172Y68268D01*
X9720Y67816D01*
X9644Y67826D01*
X9435Y67798D01*
X9241Y67718D01*
X9073Y67589D01*
X8945Y67422D01*
X8865Y67228D01*
X8837Y67019D01*
X8865Y66810D01*
X8945Y66615D01*
X9073Y66448D01*
X9083Y66441D01*
X9040Y66314D01*
X8846D01*
Y65410D01*
X9750D01*
Y65160D01*
X10000D01*
Y64006D01*
X10654D01*
Y64377D01*
X10760Y64448D01*
X10898Y64391D01*
X10910Y64389D01*
Y65369D01*
Y66349D01*
X10898Y66347D01*
X10717Y66272D01*
X10654Y66314D01*
Y66314D01*
X10248D01*
X10205Y66441D01*
X10215Y66448D01*
X10343Y66615D01*
X10423Y66810D01*
X10445Y66974D01*
X10547Y67030D01*
X10576Y67033D01*
X10630Y66992D01*
X10886Y66886D01*
X11160Y66850D01*
X11434Y66886D01*
X11690Y66992D01*
X11909Y67160D01*
X12077Y67379D01*
X12183Y67635D01*
X12219Y67909D01*
X12183Y68183D01*
X12077Y68438D01*
X11909Y68658D01*
X11690Y68826D01*
X11434Y68932D01*
X11160Y68968D01*
D02*
G37*
G36*
X22050Y67434D02*
Y66250D01*
X23234D01*
X23217Y66380D01*
X23070Y66733D01*
X22837Y67037D01*
X22533Y67270D01*
X22180Y67417D01*
X22050Y67434D01*
D02*
G37*
G36*
X21550D02*
X21420Y67417D01*
X21067Y67270D01*
X20763Y67037D01*
X20530Y66733D01*
X20383Y66380D01*
X20366Y66250D01*
X21550D01*
Y67434D01*
D02*
G37*
G36*
X13700Y68968D02*
X13426Y68932D01*
X13170Y68826D01*
X12951Y68658D01*
X12783Y68438D01*
X12677Y68183D01*
X12641Y67909D01*
X12677Y67635D01*
X12783Y67379D01*
X12951Y67160D01*
X13170Y66992D01*
X13426Y66886D01*
X13700Y66850D01*
X13974Y66886D01*
X14019Y66905D01*
X14486Y66438D01*
Y66250D01*
X14359Y66187D01*
X14230Y66286D01*
X13974Y66392D01*
X13700Y66428D01*
X13426Y66392D01*
X13170Y66286D01*
X12951Y66118D01*
X12783Y65898D01*
X12677Y65643D01*
X12641Y65369D01*
X12677Y65095D01*
X12685Y65075D01*
X12140Y64529D01*
X12029Y64364D01*
X11990Y64169D01*
Y63300D01*
X11577D01*
X11550Y63300D01*
X11450D01*
X11423Y63300D01*
X9550D01*
Y59900D01*
X11423D01*
X11450Y59900D01*
X11550D01*
X11577Y59900D01*
X12279D01*
X13240Y58940D01*
X13405Y58829D01*
X13600Y58790D01*
X16849D01*
X19240Y56399D01*
Y46467D01*
X19179Y46421D01*
X19051Y46253D01*
X18971Y46059D01*
X18943Y45850D01*
X18971Y45641D01*
X19051Y45447D01*
X19179Y45279D01*
X19347Y45151D01*
X19541Y45071D01*
X19750Y45043D01*
X19959Y45071D01*
X20113Y45135D01*
X20240Y45072D01*
Y43314D01*
X18790Y41863D01*
X18679Y41698D01*
X18640Y41503D01*
Y38227D01*
X18679Y38032D01*
X18790Y37867D01*
X20207Y36450D01*
X20259Y36415D01*
X20284Y36377D01*
X20482Y36245D01*
X20508Y36240D01*
Y36110D01*
X20482Y36105D01*
X20284Y35973D01*
X20151Y35774D01*
X20105Y35540D01*
X20151Y35306D01*
X20284Y35107D01*
X20482Y34975D01*
X20508Y34970D01*
Y34840D01*
X20482Y34835D01*
X20284Y34703D01*
X20151Y34504D01*
X20105Y34270D01*
X20151Y34036D01*
X20284Y33837D01*
X20482Y33705D01*
X20508Y33700D01*
Y33570D01*
X20482Y33565D01*
X20284Y33433D01*
X20151Y33234D01*
X20105Y33000D01*
X20151Y32766D01*
X20284Y32567D01*
X20482Y32435D01*
X20626Y32406D01*
Y32277D01*
X20500Y32252D01*
X20317Y32129D01*
X20217Y31980D01*
X21366D01*
X22516D01*
X22416Y32129D01*
X22232Y32252D01*
X22107Y32277D01*
Y32406D01*
X22250Y32435D01*
X22285Y32458D01*
X22307Y32429D01*
X22474Y32301D01*
X22668Y32221D01*
X22877Y32193D01*
X23086Y32221D01*
X23281Y32301D01*
X23448Y32429D01*
X23576Y32597D01*
X23657Y32791D01*
X23684Y33000D01*
X23657Y33209D01*
X23576Y33403D01*
X23448Y33571D01*
X23281Y33699D01*
X23086Y33779D01*
X22877Y33807D01*
X22668Y33779D01*
X22474Y33699D01*
X22352Y33605D01*
X22339Y33611D01*
X22328Y33756D01*
X22449Y33837D01*
X22488Y33897D01*
X22508Y33910D01*
X24010Y35412D01*
X24121Y35578D01*
X24160Y35773D01*
Y57143D01*
X24274Y57257D01*
X24350Y57247D01*
X24559Y57275D01*
X24753Y57355D01*
X24921Y57483D01*
X25049Y57651D01*
X25129Y57845D01*
X25157Y58054D01*
X25129Y58263D01*
X25049Y58457D01*
X24921Y58625D01*
X24753Y58753D01*
X24559Y58833D01*
X24350Y58861D01*
X24141Y58833D01*
X23947Y58753D01*
X23779Y58625D01*
X23651Y58457D01*
X23587Y58302D01*
X23460Y58327D01*
Y58483D01*
X23521Y58529D01*
X23649Y58697D01*
X23729Y58891D01*
X23757Y59100D01*
X23729Y59309D01*
X23649Y59503D01*
X23521Y59671D01*
X23353Y59799D01*
X23159Y59879D01*
X22950Y59907D01*
X22741Y59879D01*
X22547Y59799D01*
X22379Y59671D01*
X22251Y59503D01*
X22171Y59309D01*
X22143Y59100D01*
X22144Y59092D01*
X22024Y59033D01*
X19960Y61097D01*
Y65833D01*
X19921Y66028D01*
X19810Y66193D01*
X19103Y66900D01*
X17734Y68269D01*
X17569Y68380D01*
X17374Y68419D01*
X17290D01*
Y68959D01*
X15190D01*
Y67270D01*
X15073Y67221D01*
X14704Y67590D01*
X14723Y67635D01*
X14759Y67909D01*
X14723Y68183D01*
X14617Y68438D01*
X14449Y68658D01*
X14230Y68826D01*
X13974Y68932D01*
X13700Y68968D01*
D02*
G37*
G36*
X11410Y66349D02*
Y65619D01*
X12140D01*
X12138Y65631D01*
X12037Y65875D01*
X11876Y66085D01*
X11666Y66246D01*
X11422Y66347D01*
X11410Y66349D01*
D02*
G37*
G36*
X30200Y67507D02*
X29906Y67478D01*
X29623Y67393D01*
X29363Y67253D01*
X29134Y67066D01*
X28947Y66837D01*
X28807Y66577D01*
X28722Y66294D01*
X28693Y66000D01*
X28722Y65706D01*
X28807Y65423D01*
X28947Y65163D01*
X29134Y64934D01*
X29363Y64747D01*
X29623Y64607D01*
X29906Y64522D01*
X30200Y64493D01*
X30494Y64522D01*
X30777Y64607D01*
X31037Y64747D01*
X31266Y64934D01*
X31453Y65163D01*
X31593Y65423D01*
X31674Y65690D01*
X31800D01*
Y65400D01*
X33300D01*
Y67000D01*
X31800D01*
Y66710D01*
X31521D01*
X31453Y66837D01*
X31266Y67066D01*
X31037Y67253D01*
X30777Y67393D01*
X30494Y67478D01*
X30200Y67507D01*
D02*
G37*
G36*
X23234Y65750D02*
X22050D01*
Y64566D01*
X22180Y64583D01*
X22533Y64730D01*
X22837Y64963D01*
X23070Y65267D01*
X23217Y65620D01*
X23234Y65750D01*
D02*
G37*
G36*
X21550D02*
X20366D01*
X20383Y65620D01*
X20530Y65267D01*
X20763Y64963D01*
X21067Y64730D01*
X21420Y64583D01*
X21550Y64566D01*
Y65750D01*
D02*
G37*
G36*
X12140Y65119D02*
X11410D01*
Y64389D01*
X11422Y64391D01*
X11666Y64492D01*
X11876Y64653D01*
X12037Y64863D01*
X12138Y65107D01*
X12140Y65119D01*
D02*
G37*
G36*
X9500Y64910D02*
X8846D01*
Y64006D01*
X9500D01*
Y64910D01*
D02*
G37*
G36*
X9404Y63254D02*
X8750D01*
Y61850D01*
X9404D01*
Y63254D01*
D02*
G37*
G36*
X8250D02*
X7596D01*
Y61850D01*
X8250D01*
Y63254D01*
D02*
G37*
G36*
X48100Y61058D02*
Y60554D01*
X48604D01*
Y61058D01*
X48100D01*
D02*
G37*
G36*
X9404Y61350D02*
X8750D01*
Y59946D01*
X9404D01*
Y61350D01*
D02*
G37*
G36*
X8250D02*
X7596D01*
Y59946D01*
X8250D01*
Y61350D01*
D02*
G37*
G36*
X45200Y62070D02*
X44300D01*
X44124Y62035D01*
X43976Y61936D01*
X43876Y61787D01*
X43841Y61611D01*
X43876Y61436D01*
X43971Y61294D01*
X43876Y61152D01*
X43841Y60976D01*
X43876Y60801D01*
X43971Y60659D01*
X43876Y60517D01*
X43841Y60341D01*
X43876Y60166D01*
X43971Y60024D01*
X43876Y59882D01*
X43841Y59706D01*
X43876Y59531D01*
X43971Y59389D01*
X43876Y59247D01*
X43841Y59071D01*
X43876Y58896D01*
X43971Y58754D01*
X43876Y58612D01*
X43841Y58436D01*
X43876Y58261D01*
X43976Y58112D01*
X44007Y58091D01*
X43926Y57969D01*
X44066Y58051D01*
X44066D01*
X44124Y58012D01*
X44300Y57978D01*
X44750D01*
Y57625D01*
X44300D01*
X44124Y57590D01*
X44066Y57551D01*
X44066D01*
X43926Y57633D01*
X44007Y57512D01*
X43976Y57491D01*
X43876Y57342D01*
X43841Y57166D01*
X43876Y56991D01*
X43971Y56849D01*
X43876Y56707D01*
X43841Y56531D01*
X43876Y56356D01*
X43971Y56214D01*
X43876Y56072D01*
X43841Y55896D01*
X43876Y55721D01*
X43976Y55572D01*
X44124Y55473D01*
X44240Y55449D01*
Y54354D01*
X43800D01*
Y51954D01*
X45229D01*
X45419Y51764D01*
X45584Y51654D01*
X45779Y51615D01*
X45783D01*
X45829Y51554D01*
X45997Y51426D01*
X46191Y51345D01*
X46400Y51318D01*
X46609Y51345D01*
X46803Y51426D01*
X46971Y51554D01*
X47099Y51721D01*
X47179Y51916D01*
X47207Y52125D01*
X47179Y52333D01*
X47154Y52395D01*
X47224Y52501D01*
X47397D01*
X47426Y52530D01*
X47645Y52312D01*
X47643Y52300D01*
X47671Y52091D01*
X47751Y51897D01*
X47879Y51729D01*
X48047Y51601D01*
X48241Y51521D01*
X48450Y51493D01*
X48659Y51521D01*
X48853Y51601D01*
X49021Y51729D01*
X49149Y51897D01*
X49229Y52091D01*
X49257Y52300D01*
X49229Y52509D01*
X49149Y52703D01*
X49095Y52773D01*
X49158Y52900D01*
X49620D01*
Y53804D01*
X48966D01*
Y53055D01*
X48943Y53043D01*
X48839Y53005D01*
X48659Y53079D01*
X48450Y53107D01*
X48438Y53105D01*
X47920Y53623D01*
Y55254D01*
X47920D01*
Y57554D01*
X46020D01*
Y57554D01*
X45981Y57533D01*
X45896Y57590D01*
X45720Y57625D01*
X45706D01*
X45602Y57752D01*
X45612Y57801D01*
X45602Y57851D01*
X45706Y57978D01*
X45832D01*
X45965Y58004D01*
X46950D01*
Y59414D01*
X47040Y59504D01*
X47050D01*
X47069Y59512D01*
X47196Y59428D01*
Y59054D01*
X47900D01*
X48604D01*
Y59558D01*
X48604D01*
Y60054D01*
X47850D01*
Y60304D01*
X47600D01*
Y61058D01*
X47158D01*
X47050Y61104D01*
X46988Y61104D01*
X45633D01*
X45624Y61152D01*
X45529Y61294D01*
X45624Y61436D01*
X45659Y61611D01*
X45624Y61787D01*
X45524Y61936D01*
X45376Y62035D01*
X45200Y62070D01*
D02*
G37*
G36*
X48604Y58554D02*
X48150D01*
Y58050D01*
X48604D01*
Y58554D01*
D02*
G37*
G36*
X47650D02*
X47196D01*
Y58050D01*
X47650D01*
Y58554D01*
D02*
G37*
G36*
X50774Y57508D02*
X50120D01*
Y56604D01*
X50774D01*
Y57508D01*
D02*
G37*
G36*
X49620D02*
X48966D01*
Y56604D01*
X49620D01*
Y57508D01*
D02*
G37*
G36*
X50774Y56104D02*
X49870D01*
X48966D01*
Y55200D01*
Y54304D01*
X49870D01*
X50774D01*
Y55200D01*
Y56104D01*
D02*
G37*
G36*
X42754Y54308D02*
X42100D01*
Y53404D01*
X42754D01*
Y54308D01*
D02*
G37*
G36*
X41600D02*
X40946D01*
Y53404D01*
X41600D01*
Y54308D01*
D02*
G37*
G36*
X50774Y53804D02*
X50120D01*
Y52900D01*
X50774D01*
Y53804D01*
D02*
G37*
G36*
X42754Y52904D02*
X42100D01*
Y52000D01*
X42754D01*
Y52904D01*
D02*
G37*
G36*
X41600D02*
X40946D01*
Y52000D01*
X41600D01*
Y52904D01*
D02*
G37*
G36*
X35000Y67000D02*
X33500D01*
Y65400D01*
X33650D01*
Y64229D01*
X34600Y63529D01*
Y62161D01*
X34576Y62126D01*
X34557Y62032D01*
X34429Y61933D01*
X34301Y61766D01*
X34221Y61572D01*
X34193Y61363D01*
X34221Y61154D01*
X34301Y60959D01*
X34429Y60792D01*
X34444Y60781D01*
X34401Y60654D01*
X33050D01*
Y59054D01*
X32930Y59036D01*
X31550D01*
Y57436D01*
X31550D01*
Y57436D01*
X31550D01*
Y55836D01*
X31550D01*
X31567Y55817D01*
X31543Y55632D01*
X31561Y55494D01*
X31550Y55482D01*
X31550D01*
Y53882D01*
Y52282D01*
X33050D01*
Y51082D01*
X36016D01*
X36065Y50964D01*
X35201Y50100D01*
X35125Y50110D01*
X34916Y50083D01*
X34722Y50002D01*
X34554Y49874D01*
X34426Y49707D01*
X34346Y49512D01*
X34318Y49303D01*
X34346Y49094D01*
X34426Y48900D01*
X34554Y48733D01*
X34722Y48604D01*
X34916Y48524D01*
X35125Y48496D01*
X35334Y48524D01*
X35528Y48604D01*
X35696Y48733D01*
X35824Y48900D01*
X35904Y49094D01*
X35932Y49303D01*
X35922Y49379D01*
X38010Y51468D01*
X38121Y51633D01*
X38160Y51828D01*
Y54330D01*
X39234Y55405D01*
X39262Y55446D01*
X40150D01*
Y56346D01*
X40150Y56346D01*
X40150D01*
X40147Y56473D01*
X40159Y56531D01*
X40124Y56707D01*
X40029Y56849D01*
X40124Y56991D01*
X40159Y57166D01*
X40124Y57342D01*
X40029Y57484D01*
X40124Y57626D01*
X40159Y57801D01*
X40124Y57977D01*
X40029Y58119D01*
X40124Y58261D01*
X40159Y58436D01*
X40124Y58612D01*
X40029Y58754D01*
X40124Y58896D01*
X40159Y59071D01*
X40124Y59247D01*
X40029Y59389D01*
X40124Y59531D01*
X40159Y59706D01*
X40124Y59882D01*
X40029Y60024D01*
X40124Y60166D01*
X40159Y60341D01*
X40124Y60517D01*
X40029Y60659D01*
X40124Y60801D01*
X40159Y60976D01*
X40124Y61152D01*
X40029Y61294D01*
X40124Y61436D01*
X40159Y61611D01*
X40124Y61787D01*
X40024Y61936D01*
X39876Y62035D01*
X39760Y62058D01*
Y62654D01*
X40000D01*
Y64154D01*
Y65754D01*
X36800D01*
Y65754D01*
X36750Y65679D01*
X35550D01*
Y65464D01*
X35000D01*
Y67000D01*
D02*
G37*
G36*
X15550Y47700D02*
X15450D01*
X15423Y47700D01*
X13577D01*
X13550Y47700D01*
X13450D01*
X13423Y47700D01*
X11577D01*
X11550Y47700D01*
X11450D01*
X11423Y47700D01*
X9577D01*
X9550Y47700D01*
X9450D01*
X9423Y47700D01*
X7577D01*
X7550Y47700D01*
X7450D01*
X7423Y47700D01*
X5550D01*
Y44300D01*
X7423D01*
X7450Y44300D01*
X7550D01*
X7577Y44300D01*
X7939D01*
Y43429D01*
X7705D01*
Y42176D01*
X7705Y42109D01*
X7705Y41982D01*
Y40729D01*
X7990D01*
Y36263D01*
X8029Y36068D01*
X8140Y35902D01*
X11452Y32590D01*
X11618Y32479D01*
X11813Y32440D01*
X15774D01*
X15782Y32435D01*
X15808Y32430D01*
Y32300D01*
X15782Y32295D01*
X15584Y32163D01*
X15451Y31964D01*
X15405Y31730D01*
X15451Y31496D01*
X15584Y31297D01*
X15782Y31165D01*
X16016Y31118D01*
X16106D01*
Y30900D01*
X15866D01*
Y29300D01*
X16106D01*
Y28756D01*
X16050Y28707D01*
X15841Y28679D01*
X15647Y28599D01*
X15479Y28471D01*
X15351Y28303D01*
X15271Y28109D01*
X15243Y27900D01*
X15271Y27691D01*
X15351Y27497D01*
X15479Y27329D01*
X15483Y27327D01*
Y26150D01*
X17883D01*
Y26539D01*
X18027D01*
Y26500D01*
X19927D01*
Y27700D01*
X18027D01*
Y27661D01*
X17883D01*
Y28050D01*
X17227D01*
Y29210D01*
X17317Y29300D01*
X17466Y29300D01*
X17574Y29346D01*
X18016D01*
Y30100D01*
Y30854D01*
X17574D01*
X17466Y30900D01*
X17404Y30900D01*
X17227D01*
Y31118D01*
X17316D01*
X17550Y31165D01*
X17749Y31297D01*
X17881Y31496D01*
X17928Y31730D01*
X17881Y31964D01*
X17749Y32163D01*
X17550Y32295D01*
X17525Y32300D01*
Y32430D01*
X17550Y32435D01*
X17749Y32567D01*
X17881Y32766D01*
X17928Y33000D01*
X17881Y33234D01*
X17749Y33433D01*
X17550Y33565D01*
X17525Y33570D01*
Y33700D01*
X17550Y33705D01*
X17749Y33837D01*
X17881Y34036D01*
X17928Y34270D01*
X17881Y34504D01*
X17749Y34703D01*
X17550Y34835D01*
X17525Y34840D01*
Y34970D01*
X17550Y34975D01*
X17749Y35107D01*
X17881Y35306D01*
X17928Y35540D01*
X17881Y35774D01*
X17749Y35973D01*
X17550Y36105D01*
X17525Y36110D01*
Y36240D01*
X17550Y36245D01*
X17749Y36377D01*
X17881Y36576D01*
X17928Y36810D01*
X17881Y37044D01*
X17749Y37243D01*
X17550Y37375D01*
X17525Y37380D01*
Y37510D01*
X17550Y37515D01*
X17749Y37647D01*
X17881Y37846D01*
X17928Y38080D01*
X17881Y38314D01*
X17749Y38513D01*
X17550Y38645D01*
X17525Y38650D01*
Y38780D01*
X17550Y38785D01*
X17749Y38917D01*
X17881Y39116D01*
X17928Y39350D01*
X17881Y39584D01*
X17749Y39783D01*
X17550Y39915D01*
X17374Y39950D01*
X17312Y39972D01*
X17269Y40089D01*
X17284Y40201D01*
X17257Y40410D01*
X17176Y40605D01*
X17048Y40772D01*
X16881Y40900D01*
X16686Y40981D01*
X16477Y41008D01*
X16268Y40981D01*
X16074Y40900D01*
X15907Y40772D01*
X15778Y40605D01*
X15698Y40410D01*
X15670Y40201D01*
X15698Y39992D01*
X15741Y39888D01*
X15584Y39783D01*
X15451Y39584D01*
X15405Y39350D01*
X15426Y39241D01*
X15309Y39178D01*
X15010Y39478D01*
Y44300D01*
X15423D01*
X15450Y44300D01*
X15550D01*
X15577Y44300D01*
X16099D01*
X16140Y44240D01*
X16353Y44026D01*
X16343Y43950D01*
X16371Y43741D01*
X16451Y43547D01*
X16579Y43379D01*
X16747Y43251D01*
X16941Y43171D01*
X17150Y43143D01*
X17359Y43171D01*
X17553Y43251D01*
X17721Y43379D01*
X17849Y43547D01*
X17929Y43741D01*
X17957Y43950D01*
X17929Y44159D01*
X17849Y44353D01*
X17721Y44521D01*
X17553Y44649D01*
X17450Y44692D01*
Y47700D01*
X15577D01*
X15550Y47700D01*
D02*
G37*
G36*
X5404Y47654D02*
X4750D01*
Y46250D01*
X5404D01*
Y47654D01*
D02*
G37*
G36*
X4250D02*
X3596D01*
Y46250D01*
X4250D01*
Y47654D01*
D02*
G37*
G36*
X5404Y45750D02*
X4750D01*
Y44346D01*
X5404D01*
Y45750D01*
D02*
G37*
G36*
X4250D02*
X3596D01*
Y44346D01*
X4250D01*
Y45750D01*
D02*
G37*
G36*
X44200Y35857D02*
X43991Y35829D01*
X43824Y35760D01*
X40950D01*
Y35071D01*
X40300D01*
Y35350D01*
X38700D01*
Y33750D01*
X40300D01*
Y33949D01*
X40950D01*
Y33860D01*
X43807D01*
X44689Y32978D01*
Y31800D01*
X44455D01*
Y30547D01*
X44455Y30480D01*
X44455Y30361D01*
X44365Y30271D01*
X43490D01*
Y30350D01*
X42290D01*
Y30304D01*
X42190D01*
Y29400D01*
Y28496D01*
X42290D01*
Y28450D01*
X43490D01*
Y29149D01*
X44455D01*
Y27952D01*
X44455Y27950D01*
X44501Y27842D01*
X44501Y27823D01*
Y27480D01*
X45999D01*
Y27823D01*
X45999Y27842D01*
X46045Y27950D01*
X46045Y27952D01*
Y28850D01*
X47600D01*
Y30323D01*
X47600Y30429D01*
X47600Y30577D01*
Y32050D01*
X46000D01*
Y31800D01*
X45811D01*
Y33210D01*
X45768Y33425D01*
X45647Y33607D01*
X44772Y34481D01*
X44899Y34647D01*
X44979Y34841D01*
X45007Y35050D01*
X44979Y35259D01*
X44899Y35453D01*
X44771Y35621D01*
X44603Y35749D01*
X44409Y35829D01*
X44200Y35857D01*
D02*
G37*
G36*
X44204Y32814D02*
X42850D01*
Y32160D01*
X44204D01*
Y32814D01*
D02*
G37*
G36*
X42350D02*
X40996D01*
Y32160D01*
X42350D01*
Y32814D01*
D02*
G37*
G36*
X22516Y31480D02*
X21616D01*
Y31165D01*
X22016D01*
X22232Y31208D01*
X22416Y31331D01*
X22516Y31480D01*
D02*
G37*
G36*
X21116D02*
X20217D01*
X20317Y31331D01*
X20500Y31208D01*
X20716Y31165D01*
X21116D01*
Y31480D01*
D02*
G37*
G36*
X44204Y31660D02*
X42850D01*
Y31006D01*
X44204D01*
Y31660D01*
D02*
G37*
G36*
X42350D02*
X40996D01*
Y31006D01*
X42350D01*
Y31660D01*
D02*
G37*
G36*
X18516Y30854D02*
Y30350D01*
X19020D01*
Y30854D01*
X18516D01*
D02*
G37*
G36*
X19020Y29850D02*
X18516D01*
Y29346D01*
X19020D01*
Y29850D01*
D02*
G37*
G36*
X39904Y29204D02*
X39150D01*
Y28550D01*
X39904D01*
Y29204D01*
D02*
G37*
G36*
X38650D02*
X37896D01*
Y28550D01*
X38650D01*
Y29204D01*
D02*
G37*
G36*
X35650Y32400D02*
X32850D01*
Y30300D01*
X35650D01*
Y30789D01*
X38700D01*
Y30550D01*
X39507D01*
X40390Y29667D01*
Y28450D01*
X41590D01*
Y28496D01*
X41690D01*
Y29400D01*
Y30304D01*
X41590D01*
Y30350D01*
X41293D01*
X40300Y31343D01*
Y32150D01*
X38700D01*
Y31911D01*
X35650D01*
Y32400D01*
D02*
G37*
G36*
X24227Y27907D02*
X24079Y27887D01*
X24064Y27900D01*
Y27900D01*
X22464D01*
Y27661D01*
X22327D01*
Y27700D01*
X20427D01*
Y26500D01*
X20473D01*
Y26400D01*
X21377D01*
X22281D01*
Y26458D01*
X22362Y26491D01*
X22442Y26471D01*
X22464Y26449D01*
X22464Y26300D01*
X22510Y26192D01*
Y25750D01*
X24018D01*
Y26192D01*
X24028Y26215D01*
X24123Y26307D01*
X24227Y26293D01*
X24436Y26321D01*
X24631Y26401D01*
X24798Y26529D01*
X24926Y26697D01*
X25007Y26891D01*
X25034Y27100D01*
X25007Y27309D01*
X24926Y27503D01*
X24798Y27671D01*
X24631Y27799D01*
X24436Y27879D01*
X24227Y27907D01*
D02*
G37*
G36*
X45999Y26980D02*
X45500D01*
Y26616D01*
X45999D01*
Y26980D01*
D02*
G37*
G36*
X45000D02*
X44501D01*
Y26616D01*
X45000D01*
Y26980D01*
D02*
G37*
G36*
X22281Y25900D02*
X21377D01*
X20473D01*
Y25596D01*
Y25450D01*
X21377D01*
X22281D01*
Y25596D01*
Y25900D01*
D02*
G37*
G36*
X48550Y27390D02*
X46950D01*
Y25790D01*
X48550D01*
Y26029D01*
X48969D01*
X48977Y25966D01*
X49083Y25710D01*
X49251Y25491D01*
X49470Y25323D01*
X49726Y25217D01*
X50000Y25181D01*
X50274Y25217D01*
X50530Y25323D01*
X50749Y25491D01*
X50917Y25710D01*
X51023Y25966D01*
X51059Y26240D01*
X51023Y26514D01*
X50917Y26770D01*
X50749Y26989D01*
X50530Y27157D01*
X50274Y27263D01*
X50000Y27299D01*
X49726Y27263D01*
X49470Y27157D01*
X49462Y27151D01*
X48550D01*
Y27390D01*
D02*
G37*
G36*
X24018Y25250D02*
X23514D01*
Y24746D01*
X24018D01*
Y25250D01*
D02*
G37*
G36*
X23014D02*
X22510D01*
Y24746D01*
X23014D01*
Y25250D01*
D02*
G37*
G36*
X22281Y24950D02*
X21627D01*
Y24646D01*
X22281D01*
Y24950D01*
D02*
G37*
G36*
X21127D02*
X20473D01*
Y24646D01*
X21127D01*
Y24950D01*
D02*
G37*
G36*
X19927Y25800D02*
X18027D01*
Y24600D01*
X19927D01*
Y25800D01*
D02*
G37*
G36*
X17837Y25104D02*
X16933D01*
Y24450D01*
X17837D01*
Y25104D01*
D02*
G37*
G36*
X16433D02*
X15529D01*
Y24450D01*
X16433D01*
Y25104D01*
D02*
G37*
G36*
X39904Y28050D02*
X38900D01*
X37896D01*
Y27550D01*
X37850D01*
Y26111D01*
X34750D01*
X34696Y26100D01*
X32850D01*
Y24000D01*
X35650D01*
Y24989D01*
X38100D01*
X38303Y25030D01*
X38379Y24929D01*
X38547Y24801D01*
X38741Y24721D01*
X38950Y24693D01*
X39159Y24721D01*
X39353Y24801D01*
X39521Y24929D01*
X39544Y24960D01*
X39593Y24963D01*
X39775Y24842D01*
X39990Y24799D01*
X40330D01*
Y24565D01*
X40820D01*
Y24230D01*
X40693Y24138D01*
X40550Y24157D01*
X40341Y24129D01*
X40237Y24086D01*
X40110Y24145D01*
Y24145D01*
X38792D01*
X38790Y24145D01*
X38682Y24099D01*
X38663Y24099D01*
X38320D01*
Y23350D01*
Y22601D01*
X38663D01*
X38682Y22601D01*
X38790Y22555D01*
X38792Y22555D01*
X40110D01*
Y22555D01*
X40237Y22614D01*
X40341Y22571D01*
X40550Y22543D01*
X40759Y22571D01*
X40953Y22651D01*
X41121Y22779D01*
X41221Y22910D01*
X41643D01*
X41770Y22910D01*
Y21110D01*
X42970D01*
Y22910D01*
X43070Y22953D01*
Y23810D01*
Y24664D01*
X43030D01*
Y25227D01*
X43287Y25483D01*
X43408Y25665D01*
X43451Y25880D01*
Y26050D01*
X43490D01*
Y27950D01*
X42290D01*
Y26155D01*
X41710D01*
X41710Y26155D01*
X41590Y26172D01*
Y27950D01*
X40390D01*
Y27561D01*
X39904D01*
Y28050D01*
D02*
G37*
G36*
X43874Y24664D02*
X43570D01*
Y24060D01*
X43874D01*
Y24664D01*
D02*
G37*
G36*
X37820Y24099D02*
X37456D01*
Y23600D01*
X37820D01*
Y24099D01*
D02*
G37*
G36*
X17837Y23950D02*
X16933D01*
Y23296D01*
X17837D01*
Y23950D01*
D02*
G37*
G36*
X16433D02*
X15529D01*
Y23296D01*
X16433D01*
Y23950D01*
D02*
G37*
G36*
X43874Y23560D02*
X43570D01*
Y22956D01*
X43874D01*
Y23560D01*
D02*
G37*
G36*
X37820Y23100D02*
X37456D01*
Y22601D01*
X37820D01*
Y23100D01*
D02*
G37*
G36*
X46850Y24397D02*
X46641Y24369D01*
X46447Y24289D01*
X46279Y24161D01*
X46151Y23993D01*
X46071Y23799D01*
X46043Y23590D01*
X46071Y23381D01*
X46151Y23187D01*
X46279Y23019D01*
X46447Y22891D01*
X46641Y22811D01*
X46850Y22783D01*
X46855Y22784D01*
X46950Y22700D01*
Y22590D01*
X48550D01*
Y24190D01*
X47382D01*
X47253Y24289D01*
X47059Y24369D01*
X46850Y24397D01*
D02*
G37*
G36*
X51050Y24750D02*
X48950D01*
Y22650D01*
X49439D01*
Y20800D01*
X48950D01*
Y20557D01*
X48730D01*
X48521Y20529D01*
X48327Y20449D01*
X48159Y20321D01*
X48031Y20153D01*
X47951Y19959D01*
X47923Y19750D01*
X47951Y19541D01*
X48031Y19347D01*
X48159Y19179D01*
X48327Y19051D01*
X48521Y18971D01*
X48730Y18943D01*
X48950D01*
Y18700D01*
X51050D01*
Y20800D01*
X50561D01*
Y22650D01*
X51050D01*
Y24750D01*
D02*
G37*
G36*
X50250Y18190D02*
Y17460D01*
X50980D01*
X50978Y17472D01*
X50877Y17716D01*
X50716Y17926D01*
X50506Y18087D01*
X50262Y18188D01*
X50250Y18190D01*
D02*
G37*
G36*
X49750D02*
X49738Y18188D01*
X49494Y18087D01*
X49284Y17926D01*
X49123Y17716D01*
X49022Y17472D01*
X49020Y17460D01*
X49750D01*
Y18190D01*
D02*
G37*
G36*
X50980Y16960D02*
X50250D01*
Y16230D01*
X50262Y16232D01*
X50506Y16333D01*
X50716Y16494D01*
X50877Y16704D01*
X50978Y16948D01*
X50980Y16960D01*
D02*
G37*
G36*
X49750D02*
X49020D01*
X49022Y16948D01*
X49123Y16704D01*
X49284Y16494D01*
X49494Y16333D01*
X49738Y16232D01*
X49750Y16230D01*
Y16960D01*
D02*
G37*
%LPD*%
G36*
X13990Y39266D02*
X14029Y39071D01*
X14140Y38906D01*
X14574Y38472D01*
X14528Y38338D01*
X14374Y38274D01*
X14207Y38146D01*
X14078Y37978D01*
X13998Y37784D01*
X13970Y37575D01*
Y36650D01*
X13300D01*
Y36700D01*
X11700D01*
Y36700D01*
X11654Y36654D01*
X11150D01*
Y35900D01*
Y35146D01*
X11592D01*
X11700Y35100D01*
X11700Y35100D01*
Y35100D01*
X12961D01*
X13010Y34983D01*
X12977Y34950D01*
Y33460D01*
X12024D01*
X10455Y35029D01*
X10504Y35146D01*
X10650D01*
Y35650D01*
X10146D01*
Y35504D01*
X10029Y35455D01*
X9010Y36474D01*
Y40729D01*
X9295D01*
Y41982D01*
X9295Y42049D01*
X9295Y42176D01*
Y43429D01*
X9061D01*
Y44300D01*
X9423D01*
X9450Y44300D01*
X9550D01*
X9577Y44300D01*
X11423D01*
X11450Y44300D01*
X11550D01*
X11577Y44300D01*
X13423D01*
X13450Y44300D01*
X13550D01*
X13577Y44300D01*
X13990D01*
Y39266D01*
D02*
G37*
%LPC*%
G36*
X10650Y36654D02*
X10146D01*
Y36150D01*
X10650D01*
Y36654D01*
D02*
G37*
%LPD*%
D12*
X46970Y53780D02*
X48450Y52300D01*
X46970Y53780D02*
Y54054D01*
X39500Y34510D02*
X43950D01*
X42600Y34810D02*
X42960D01*
X21377Y27100D02*
X24227D01*
X38900Y26600D02*
X39300Y27000D01*
X40990D01*
X50000Y19750D02*
Y23200D01*
X43200Y29710D02*
X45250D01*
Y29760D01*
Y28610D02*
Y29710D01*
X46690Y29760D02*
X46800Y29650D01*
X45250Y29760D02*
X46690D01*
X46640Y31090D02*
X46750Y31200D01*
X45250Y31090D02*
X46640D01*
X43950Y34510D02*
X45250Y33210D01*
Y31090D02*
Y33210D01*
X42890Y29400D02*
X43200Y29710D01*
X42370Y25360D02*
X42890Y25880D01*
Y27000D01*
X40990Y29400D02*
Y29860D01*
X39500Y31350D02*
X40990Y29860D01*
X34250Y31350D02*
X39500D01*
X40990Y29400D02*
X40990Y29400D01*
X47750Y26590D02*
X50200D01*
X8500Y42769D02*
Y46000D01*
X47690Y23450D02*
X47740Y23400D01*
X46836Y23450D02*
X47690D01*
X39990Y25360D02*
X40990D01*
X38750Y25700D02*
X39650D01*
X39990Y25360D01*
X38750Y25700D02*
X38950Y25500D01*
X34250Y25050D02*
X34750Y25550D01*
X38100D01*
X38900Y26350D01*
X16477Y39539D02*
Y40201D01*
Y39539D02*
X16666Y39350D01*
X13777Y34200D02*
X14777D01*
X16639Y27100D02*
X16683D01*
X18927Y27100D01*
X16240Y65369D02*
X17900D01*
X36730Y70150D02*
X43730D01*
X36721Y70159D02*
X36730Y70150D01*
X17900Y70159D02*
X36721D01*
X6500Y61600D02*
Y64810D01*
X6850Y65160D01*
X6900Y65210D01*
X6875Y66375D02*
X6900Y66350D01*
Y65210D02*
Y66350D01*
X6875Y66375D02*
X10659Y70159D01*
X17900D01*
X16639Y27100D02*
X16666Y27127D01*
Y31730D01*
D13*
X37650Y51828D02*
Y54541D01*
X45779Y52125D02*
X46400D01*
X44750Y53154D02*
X45779Y52125D01*
X13600Y59300D02*
X17060D01*
X12500Y60400D02*
X13600Y59300D01*
X12500Y60400D02*
Y61750D01*
X17060Y59300D02*
X19750Y56610D01*
X21450Y42650D02*
Y57450D01*
X18100Y60800D02*
X21450Y57450D01*
X18100Y60800D02*
Y62850D01*
X19750Y45850D02*
Y56610D01*
X20750Y43103D02*
Y56866D01*
X16500Y61116D02*
X20750Y56866D01*
X16500Y61116D02*
Y62050D01*
X14970Y63861D02*
X17089D01*
X14500Y63391D02*
X14970Y63861D01*
X14500Y61200D02*
Y63391D01*
X17089Y63861D02*
X18100Y62850D01*
X39450Y23350D02*
X40550D01*
X44750Y53154D02*
X44750Y53154D01*
X32350Y58236D02*
X33800D01*
X30200Y65600D02*
X30800Y66200D01*
X39250Y63454D02*
Y64904D01*
X30800Y66200D02*
X32550D01*
X34250Y66200D02*
X34250Y66200D01*
Y64954D02*
Y66200D01*
X32350Y54682D02*
Y55632D01*
Y56632D01*
X35500Y53382D02*
Y54432D01*
X34250Y64954D02*
X36150D01*
X37600D01*
X42370Y25360D02*
X42370Y22010D01*
X35500Y56804D02*
Y58236D01*
X16697Y39320D02*
X17385D01*
X39250Y61834D02*
Y63454D01*
X44750Y53154D02*
Y55739D01*
X33800Y58336D02*
Y59854D01*
X37600Y64954D02*
X37600Y64954D01*
X37650Y54541D02*
X38874Y55765D01*
X36730Y71850D02*
Y74000D01*
X43730Y71850D02*
Y74000D01*
X49870Y54054D02*
Y56354D01*
X20567Y36810D02*
X21366D01*
X20547Y38080D02*
X21366D01*
Y35540D02*
X22167D01*
X21366Y34270D02*
X22147Y34270D01*
X40960Y23350D02*
X41410Y23800D01*
X40550Y23350D02*
X40960D01*
X21366Y33000D02*
X22877D01*
X13777Y35850D02*
X14177D01*
X14527Y35500D01*
X12500Y35900D02*
X13727D01*
X16626Y35500D02*
X16666Y35540D01*
X14963Y35500D02*
X16626D01*
X14527D02*
X14963D01*
X16500Y44600D02*
Y46000D01*
X21077Y39639D02*
Y40669D01*
Y39639D02*
X21366Y39350D01*
X15686Y38080D02*
X16666D01*
X15542Y36810D02*
X16666D01*
X14777Y37575D02*
X15542Y36810D01*
X16616Y32950D02*
X16666Y33000D01*
X8500Y36263D02*
X11813Y32950D01*
X16616D01*
X8500Y36263D02*
Y41069D01*
X19873Y38754D02*
X20547Y38080D01*
X19150Y38227D02*
X20567Y36810D01*
X16500Y44600D02*
X17150Y43950D01*
X12500Y61600D02*
Y64169D01*
X13700Y65369D01*
X22147Y34270D02*
X23650Y35773D01*
X22167Y35540D02*
X22950Y36323D01*
X19873Y38754D02*
Y41073D01*
X19150Y38227D02*
Y41503D01*
X21077Y40669D02*
X22200Y41792D01*
X19873Y41073D02*
X21450Y42650D01*
X19150Y41503D02*
X20750Y43103D01*
X14500Y39266D02*
X15686Y38080D01*
X14500Y39266D02*
Y46000D01*
X22950Y36323D02*
Y59304D01*
X22200Y41792D02*
Y58136D01*
X23650Y35773D02*
Y57354D01*
X24350Y58054D01*
X9644Y67019D02*
X10534Y67909D01*
X11160D01*
X19450Y60886D02*
X22200Y58136D01*
X16240Y67909D02*
X17374D01*
X19450Y60886D02*
Y65833D01*
X17374Y67909D02*
X19450Y65833D01*
X8500Y64719D02*
Y65477D01*
X8873Y65850D01*
X9700Y64000D02*
X9791D01*
X35125Y49303D02*
X37650Y51828D01*
X8873Y65850D02*
X9890D01*
X9791Y64000D02*
X11160Y65369D01*
D16*
X16663Y84479D02*
G03*
X4500Y72315I0J-12163D01*
G01*
X50000Y19750D02*
X50000Y19750D01*
X48730Y19750D02*
X50000D01*
X16663Y84500D02*
X49200D01*
X4500Y66319D02*
Y72315D01*
X4500Y61600D02*
Y64719D01*
D19*
X43730Y74000D02*
D03*
X46270D02*
D03*
X36730D02*
D03*
X39270D02*
D03*
D20*
X30200Y66000D02*
D03*
X21800D02*
D03*
D21*
X50000Y19750D02*
D03*
Y23700D02*
D03*
D22*
Y17210D02*
D03*
Y26240D02*
D03*
X16240Y65369D02*
D03*
X13700Y67909D02*
D03*
Y65369D02*
D03*
X11160Y67909D02*
D03*
Y65369D02*
D03*
D23*
X16240Y67909D02*
D03*
D24*
X48450Y52300D02*
D03*
X46400Y52125D02*
D03*
X14777Y34200D02*
D03*
X44200Y35050D02*
D03*
X32350Y55632D02*
D03*
X36975Y57429D02*
D03*
X33950Y55832D02*
D03*
X38950Y25500D02*
D03*
X34250Y36650D02*
D03*
X48730Y19750D02*
D03*
X38950Y29260D02*
D03*
X41700Y30925D02*
D03*
X43500Y31010D02*
D03*
X24227Y27100D02*
D03*
X10146Y32529D02*
D03*
X17941Y22450D02*
D03*
X50200Y1550D02*
D03*
X17900Y1500D02*
D03*
X33850D02*
D03*
X1500D02*
D03*
X49750Y68500D02*
D03*
X34000Y20400D02*
D03*
X1800Y22750D02*
D03*
X50770Y52008D02*
D03*
X17727Y41700D02*
D03*
X1250Y64529D02*
D03*
X50050Y38511D02*
D03*
X48600Y59554D02*
D03*
X34364Y68700D02*
D03*
X50774Y55200D02*
D03*
X39450Y68689D02*
D03*
X23550Y61474D02*
D03*
X33525Y39740D02*
D03*
X46850Y23590D02*
D03*
X9644Y67019D02*
D03*
X29900Y56900D02*
D03*
X40550Y23350D02*
D03*
X33300Y50110D02*
D03*
X35000Y61363D02*
D03*
X14963Y35500D02*
D03*
X21077Y40669D02*
D03*
X16477Y40201D02*
D03*
X14777Y37575D02*
D03*
X12300Y34150D02*
D03*
X16050Y27900D02*
D03*
X22877Y33000D02*
D03*
X1800Y33250D02*
D03*
X900Y51150D02*
D03*
X17150Y43950D02*
D03*
X19750Y45850D02*
D03*
X22950Y59100D02*
D03*
X24350Y58054D02*
D03*
X17900Y65369D02*
D03*
Y70159D02*
D03*
X6875Y66375D02*
D03*
X9700Y64000D02*
D03*
X35125Y49303D02*
D03*
D25*
X26000Y80000D02*
D03*
D26*
X39250Y55896D02*
D03*
D27*
Y56531D02*
D03*
Y57166D02*
D03*
Y57801D02*
D03*
Y58436D02*
D03*
Y59071D02*
D03*
Y59706D02*
D03*
Y60341D02*
D03*
Y60976D02*
D03*
Y61611D02*
D03*
X44750D02*
D03*
Y60976D02*
D03*
Y60341D02*
D03*
Y59706D02*
D03*
Y59071D02*
D03*
Y58436D02*
D03*
Y57801D02*
D03*
Y57166D02*
D03*
Y56531D02*
D03*
Y55896D02*
D03*
D28*
X10500Y46000D02*
D03*
X12500D02*
D03*
X16500D02*
D03*
X14500D02*
D03*
X8500D02*
D03*
X4500D02*
D03*
X6500D02*
D03*
X6500Y61600D02*
D03*
X4500D02*
D03*
X8500D02*
D03*
X14500D02*
D03*
X16500D02*
D03*
X10500D02*
D03*
X12500D02*
D03*
D29*
X8500Y42769D02*
D03*
Y41389D02*
D03*
X45250Y31140D02*
D03*
Y29760D02*
D03*
Y27230D02*
D03*
Y28610D02*
D03*
D30*
X39450Y23350D02*
D03*
X38070D02*
D03*
X42370Y25360D02*
D03*
X40990D02*
D03*
D31*
X33850Y53382D02*
D03*
X35450Y53382D02*
D03*
X10900Y35900D02*
D03*
X12500D02*
D03*
X18266Y30100D02*
D03*
X16666Y30100D02*
D03*
X39200Y64954D02*
D03*
X37600D02*
D03*
X47850Y60304D02*
D03*
X46250D02*
D03*
X33850Y56754D02*
D03*
X35450D02*
D03*
D32*
X32350Y56636D02*
D03*
Y58236D02*
D03*
X46800Y29650D02*
D03*
X46800Y31250D02*
D03*
X47750Y26590D02*
D03*
Y23390D02*
D03*
X39500Y31350D02*
D03*
X39500Y34550D02*
D03*
X37000Y61654D02*
D03*
Y60054D02*
D03*
X23264Y25500D02*
D03*
Y27100D02*
D03*
X32350Y54682D02*
D03*
Y53082D02*
D03*
D33*
X13777Y34200D02*
D03*
Y35900D02*
D03*
X43730Y70150D02*
D03*
Y71850D02*
D03*
X36730Y70150D02*
D03*
Y71850D02*
D03*
D34*
X41420Y23810D02*
D03*
X43320D02*
D03*
X42370Y22010D02*
D03*
D35*
X38900Y28300D02*
D03*
Y26600D02*
D03*
D36*
X40990Y27000D02*
D03*
X42890Y27000D02*
D03*
Y29400D02*
D03*
X41940D02*
D03*
X40990D02*
D03*
D37*
X34250Y25050D02*
D03*
X34250Y31350D02*
D03*
D38*
X18977Y27100D02*
D03*
Y25200D02*
D03*
X21377D02*
D03*
Y26150D02*
D03*
Y27100D02*
D03*
D39*
X16666Y31730D02*
D03*
Y33000D02*
D03*
X16666Y34270D02*
D03*
X16666Y35540D02*
D03*
Y36810D02*
D03*
Y38080D02*
D03*
Y39350D02*
D03*
X21366Y31730D02*
D03*
Y33000D02*
D03*
Y34270D02*
D03*
Y35540D02*
D03*
Y36810D02*
D03*
Y38080D02*
D03*
Y39350D02*
D03*
D40*
X42600Y31910D02*
D03*
X42600Y34810D02*
D03*
D41*
X46970Y56354D02*
D03*
X49870D02*
D03*
X46970Y54054D02*
D03*
X49870Y54054D02*
D03*
X44750Y53154D02*
D03*
X41850Y53154D02*
D03*
X9750Y65160D02*
D03*
X6850D02*
D03*
D42*
X4500Y64719D02*
D03*
Y66319D02*
D03*
D43*
X16683Y27100D02*
D03*
X16683Y24200D02*
D03*
D44*
X47900Y58804D02*
D03*
X46200D02*
D03*
X33800Y54882D02*
D03*
X35500Y54882D02*
D03*
X32550Y66200D02*
D03*
X34250Y66200D02*
D03*
X39250Y63454D02*
D03*
X37550Y63454D02*
D03*
X33800Y58236D02*
D03*
X35500D02*
D03*
X33800Y51882D02*
D03*
X35500D02*
D03*
X33800Y59854D02*
D03*
X35500D02*
D03*
D45*
X35200Y62804D02*
D03*
X36150Y64954D02*
D03*
X34250D02*
D03*
D46*
X14970Y63861D02*
Y66639D01*
X13700Y67909D02*
X14970Y66639D01*
D47*
X47850Y58754D02*
X47900Y58704D01*
X37550Y63400D02*
X38200Y62750D01*
X37550Y63400D02*
Y63604D01*
X38200Y61363D02*
Y62750D01*
X36997Y61707D02*
X38363Y60341D01*
X33850Y53132D02*
Y53382D01*
Y51932D02*
Y53132D01*
X33800Y51882D02*
X33850Y51932D01*
X32650Y53382D02*
X33850D01*
X32350Y53082D02*
X32650Y53382D01*
X37199Y57429D02*
X37571Y57801D01*
X36975Y57429D02*
X37199D01*
X35700Y58436D02*
X39250D01*
X36283Y59071D02*
X39250D01*
X35500Y54432D02*
X38235Y57166D01*
X39250D01*
X36750Y54783D02*
X38499Y56531D01*
X36750Y53032D02*
Y54783D01*
X35675Y51957D02*
X36750Y53032D01*
X35575Y51957D02*
X35675D01*
X35500Y51882D02*
X35575Y51957D01*
X37571Y57801D02*
X39250D01*
X44930Y27230D02*
X45250D01*
X43960Y28200D02*
X44930Y27230D01*
X41940Y28200D02*
X43960D01*
X41940Y31250D02*
X42600Y31910D01*
X41940Y28200D02*
X41940Y28200D01*
Y28200D02*
Y28200D01*
X41940Y29400D02*
X41940Y28200D01*
X35500Y58236D02*
X35600Y58336D01*
X35450Y56754D02*
X35500Y56804D01*
X44750Y58436D02*
X45832D01*
X21377Y25200D02*
Y26150D01*
X46250Y58854D02*
Y60204D01*
X45832Y58436D02*
X46250Y58854D01*
X44750Y57166D02*
X45720D01*
X46532Y56354D01*
X46970D01*
X38499Y56531D02*
X39250D01*
X38586Y60976D02*
X39250D01*
X38200Y61363D02*
X38586Y60976D01*
X38363Y60341D02*
X39250D01*
X44750Y57801D02*
X46997D01*
X47900Y58704D01*
X35500Y59854D02*
X36283Y59071D01*
X35500Y58236D02*
X35700Y58436D01*
X37298Y59706D02*
X39250D01*
X36975Y60029D02*
X37298Y59706D01*
X45800Y55304D02*
X46820Y54284D01*
X33800Y53182D02*
X33850Y53132D01*
X35000Y61363D02*
Y61950D01*
X35200Y62150D01*
Y62804D01*
X45414Y56531D02*
X45800Y56145D01*
X44750Y56531D02*
X45414D01*
X45800Y55304D02*
Y56145D01*
X10900Y35900D02*
X11550Y35250D01*
Y34950D02*
Y35250D01*
Y34950D02*
X12300Y34200D01*
Y34150D02*
Y34200D01*
X38900Y28200D02*
X41940D01*
X41940Y29400D02*
Y31250D01*
X47850Y58754D02*
Y60304D01*
M02*
