G04 Layer_Color=8388736*
%FSLAX43Y43*%
%MOMM*%
G71*
G01*
G75*
%ADD47R,4.203X6.203*%
%ADD48R,7.203X6.203*%
%ADD49C,1.703*%
%ADD50R,1.703X1.703*%
%ADD51R,1.703X1.703*%
%ADD52C,2.603*%
%ADD53C,2.003*%
%ADD54C,1.203*%
%ADD55C,6.203*%
D47*
X10000Y4180D02*
D03*
Y52820D02*
D03*
X26000D02*
D03*
Y4180D02*
D03*
X42000D02*
D03*
Y52820D02*
D03*
D48*
X10000Y17260D02*
D03*
Y39740D02*
D03*
X26000D02*
D03*
Y17260D02*
D03*
X42000D02*
D03*
Y39740D02*
D03*
D49*
X11160Y65369D02*
D03*
Y67909D02*
D03*
X13700Y65369D02*
D03*
Y67909D02*
D03*
X16240Y65369D02*
D03*
X50000Y26240D02*
D03*
Y17210D02*
D03*
D50*
X16240Y67909D02*
D03*
D51*
X50000Y23700D02*
D03*
Y19750D02*
D03*
D52*
X21800Y66000D02*
D03*
X30200D02*
D03*
D53*
X39270Y74000D02*
D03*
X36730D02*
D03*
X46270D02*
D03*
X43730D02*
D03*
D54*
X42050Y23700D02*
D03*
X38950Y25700D02*
D03*
X46379Y52333D02*
D03*
X34000Y23390D02*
D03*
X35125Y49303D02*
D03*
X9700Y64000D02*
D03*
X6875Y66375D02*
D03*
X17900Y70159D02*
D03*
Y65369D02*
D03*
X24350Y58054D02*
D03*
X22950Y59100D02*
D03*
X19750Y45850D02*
D03*
X17150Y43950D02*
D03*
X900Y51150D02*
D03*
X1800Y33250D02*
D03*
X22877Y33000D02*
D03*
X16050Y27900D02*
D03*
X12300Y34150D02*
D03*
X14777Y37575D02*
D03*
X16477Y40201D02*
D03*
X21077Y40669D02*
D03*
X14963Y35500D02*
D03*
X33300Y50110D02*
D03*
X29900Y56900D02*
D03*
X9644Y67019D02*
D03*
X46850Y23590D02*
D03*
X33251Y39500D02*
D03*
X23550Y61474D02*
D03*
X39450Y68689D02*
D03*
X50774Y55200D02*
D03*
X34364Y68700D02*
D03*
X48600Y59554D02*
D03*
X50400Y37109D02*
D03*
X1250Y64529D02*
D03*
X17727Y41700D02*
D03*
X46750Y44310D02*
D03*
X1800Y22750D02*
D03*
X34000Y20400D02*
D03*
X49750Y68500D02*
D03*
X1500Y1500D02*
D03*
X33850D02*
D03*
X17900D02*
D03*
X50200Y1550D02*
D03*
X17941Y22450D02*
D03*
X10146Y32529D02*
D03*
X24227Y27100D02*
D03*
X43500Y31010D02*
D03*
X41700Y30925D02*
D03*
X38950Y29260D02*
D03*
X48730Y19750D02*
D03*
X33850Y35700D02*
D03*
X33950Y55832D02*
D03*
X36975Y57429D02*
D03*
X32350Y55632D02*
D03*
X44200Y35050D02*
D03*
X14777Y34200D02*
D03*
X48450Y52300D02*
D03*
D55*
X26000Y80000D02*
D03*
M02*
