G04 Layer_Physical_Order=1*
G04 Layer_Color=255*
%FSLAX43Y43*%
%MOMM*%
G71*
G01*
G75*
%ADD10R,1.300X2.800*%
%ADD11R,0.990X0.720*%
%ADD12R,1.000X1.000*%
%ADD13R,1.000X1.300*%
%ADD14R,0.900X1.000*%
%ADD15R,1.000X1.000*%
%ADD16R,1.300X1.500*%
%ADD17R,1.800X1.300*%
%ADD18R,1.300X1.800*%
%ADD19R,1.000X0.900*%
%ADD20R,1.473X0.508*%
%ADD21R,1.473X0.508*%
%ADD22R,0.508X1.473*%
%ADD23R,1.400X2.200*%
%ADD24R,1.200X2.000*%
%ADD25C,1.000*%
%ADD26C,0.400*%
%ADD27C,0.500*%
%ADD28C,1.500*%
%ADD29R,1.500X1.500*%
%ADD30O,1.300X3.200*%
%ADD31R,1.500X1.500*%
%ADD32C,1.000*%
%ADD33C,1.100*%
G36*
X15250Y51600D02*
X15377Y51458D01*
X15365Y51335D01*
X15245Y51178D01*
X15169Y50996D01*
X15144Y50800D01*
X15169Y50604D01*
X15245Y50422D01*
X15365Y50265D01*
X15522Y50145D01*
X15550Y50133D01*
Y48550D01*
X15550D01*
Y48254D01*
X15104D01*
Y46600D01*
Y44946D01*
X15758D01*
Y44950D01*
X16927D01*
Y44950D01*
X21881D01*
Y119D01*
X119D01*
Y51600D01*
X15250Y51600D01*
D02*
G37*
%LPC*%
G36*
X14454Y50704D02*
X13800D01*
Y49800D01*
X14454D01*
Y50704D01*
D02*
G37*
G36*
X13300D02*
X12646D01*
Y49800D01*
X13300D01*
Y50704D01*
D02*
G37*
G36*
X14454Y49300D02*
X13800D01*
Y48396D01*
X14454D01*
Y49300D01*
D02*
G37*
G36*
X13300D02*
X12646D01*
Y48396D01*
X13300D01*
Y49300D01*
D02*
G37*
G36*
X14604Y48254D02*
X13950D01*
Y46850D01*
X14604D01*
Y48254D01*
D02*
G37*
G36*
Y46350D02*
X13950D01*
Y44946D01*
X14604D01*
Y46350D01*
D02*
G37*
G36*
X9128Y49809D02*
X5479D01*
X5304Y49774D01*
X5155Y49674D01*
X3626Y48145D01*
X3526Y47996D01*
X3491Y47821D01*
Y45790D01*
X2226Y44524D01*
X2126Y44376D01*
X2091Y44200D01*
Y28200D01*
X2126Y28024D01*
X2226Y27876D01*
X3531Y26570D01*
X3493Y26493D01*
X3466Y26455D01*
X3279Y26431D01*
X3097Y26355D01*
X2940Y26235D01*
X2820Y26078D01*
X2744Y25896D01*
X2719Y25700D01*
X2744Y25504D01*
X2820Y25322D01*
X2940Y25165D01*
X2991Y25126D01*
Y20244D01*
X3026Y20068D01*
X3126Y19920D01*
X3556Y19489D01*
X3705Y19389D01*
X3734Y19384D01*
Y18496D01*
Y18000D01*
X1000D01*
Y16000D01*
X1041D01*
Y15450D01*
X750D01*
Y13950D01*
X750D01*
X746Y13854D01*
X746D01*
Y13350D01*
X1500D01*
Y13100D01*
X1750D01*
Y12346D01*
X2254D01*
Y12350D01*
X3051D01*
X3776Y11626D01*
X3924Y11526D01*
X4100Y11491D01*
X4845D01*
X4869Y11304D01*
X4945Y11122D01*
X5065Y10965D01*
X5222Y10845D01*
X5404Y10769D01*
X5600Y10744D01*
X5796Y10769D01*
X5978Y10845D01*
X6050Y10900D01*
X7260D01*
X7385Y10896D01*
X7385Y10896D01*
Y10896D01*
X7889D01*
Y11650D01*
X8389D01*
Y10896D01*
X8893D01*
Y11028D01*
X9020Y11081D01*
X9541Y10560D01*
Y9390D01*
X9255D01*
Y8170D01*
Y6550D01*
X9150D01*
Y4050D01*
X15223Y4050D01*
X15350Y4050D01*
X15350Y4050D01*
X15350Y4177D01*
Y6550D01*
X14708D01*
X14329Y6929D01*
X14377Y7046D01*
X15100D01*
Y7950D01*
Y8854D01*
X14196D01*
X14150Y8962D01*
Y9822D01*
X14150Y9844D01*
X14200Y9950D01*
X14271Y9950D01*
X14290Y9950D01*
X16500D01*
Y11750D01*
X15812D01*
X15704Y11796D01*
Y12300D01*
X14950D01*
Y12550D01*
X14700D01*
Y13304D01*
X14384D01*
X14300Y13399D01*
X14306Y13450D01*
X14281Y13646D01*
X14205Y13828D01*
X14085Y13985D01*
X13997Y14052D01*
X13937Y14159D01*
D01*
Y14159D01*
D01*
Y14461D01*
X13951Y14485D01*
X13986Y14528D01*
X14052Y14554D01*
X17000D01*
Y11950D01*
X17846D01*
Y11300D01*
X18750D01*
Y11050D01*
X19000D01*
Y10046D01*
X19654D01*
Y10050D01*
X21350D01*
Y11950D01*
X21400D01*
Y14650D01*
Y16750D01*
Y19450D01*
X20558D01*
Y20097D01*
X19654D01*
Y20347D01*
X19404D01*
Y21351D01*
X18750D01*
Y21347D01*
X17054D01*
Y19450D01*
X17000D01*
Y17112D01*
X16147Y16259D01*
X15827D01*
Y16650D01*
X15073D01*
Y17150D01*
X15827D01*
Y17654D01*
X15827D01*
X15827Y17654D01*
X15823Y17779D01*
Y19250D01*
X15823D01*
X15797Y19377D01*
X15806Y19450D01*
X15781Y19646D01*
X15705Y19828D01*
X15585Y19985D01*
X15428Y20105D01*
X15246Y20181D01*
X15050Y20206D01*
X14402D01*
X14402Y20206D01*
Y20206D01*
X14402D01*
D01*
X14212Y20206D01*
X14212Y20206D01*
X14127Y20284D01*
X13963Y20432D01*
X14020Y20539D01*
X14174Y20694D01*
X14274Y20842D01*
X14309Y21018D01*
Y22290D01*
X15261Y23242D01*
X15299Y23226D01*
X15560Y23191D01*
X15821Y23226D01*
X16064Y23326D01*
X16273Y23487D01*
X16434Y23696D01*
X16534Y23939D01*
X16569Y24200D01*
X16534Y24461D01*
X16434Y24704D01*
X16350Y24813D01*
Y25600D01*
Y27299D01*
Y29099D01*
X14850D01*
Y28462D01*
X14351Y27963D01*
X14203Y27994D01*
X14158Y28102D01*
X14038Y28259D01*
X13881Y28379D01*
X13699Y28455D01*
X13503Y28480D01*
X13402Y28467D01*
X13275Y28474D01*
X13275Y28474D01*
X13275Y28474D01*
X10175D01*
Y26974D01*
X10416D01*
Y26575D01*
X9201Y25360D01*
X8070D01*
X8065Y25384D01*
X7966Y25533D01*
X4359Y29140D01*
Y42972D01*
X6337Y44950D01*
X10660D01*
X10704Y44941D01*
X10749Y44950D01*
X13754D01*
Y48250D01*
X11954D01*
X11754Y48250D01*
Y48250D01*
X10877D01*
X9453Y49674D01*
X9304Y49774D01*
X9128Y49809D01*
D02*
G37*
G36*
X19758Y32654D02*
X19104D01*
Y31250D01*
X19758D01*
Y32654D01*
D02*
G37*
G36*
X18604D02*
X17950D01*
Y31250D01*
X18604D01*
Y32654D01*
D02*
G37*
G36*
X19758Y30750D02*
X19104D01*
Y29346D01*
X19758D01*
Y30750D01*
D02*
G37*
G36*
X18604D02*
X17950D01*
Y29346D01*
X18604D01*
Y30750D01*
D02*
G37*
G36*
X17754Y32650D02*
X5954D01*
Y29350D01*
X5996D01*
X6107Y29223D01*
X6098Y29150D01*
X6123Y28954D01*
X6199Y28772D01*
X6319Y28615D01*
X6476Y28495D01*
X6658Y28419D01*
X6854Y28394D01*
X7050Y28419D01*
X7232Y28495D01*
X7389Y28615D01*
X7509Y28772D01*
X7585Y28954D01*
X7611Y29150D01*
X7601Y29223D01*
X7712Y29350D01*
X8021D01*
X8105Y29255D01*
X8098Y29200D01*
X8123Y29004D01*
X8199Y28822D01*
X8319Y28665D01*
X8476Y28545D01*
X8658Y28469D01*
X8854Y28444D01*
X9050Y28469D01*
X9232Y28545D01*
X9389Y28665D01*
X9509Y28822D01*
X9585Y29004D01*
X9611Y29200D01*
X9603Y29255D01*
X9687Y29350D01*
X17754D01*
Y32650D01*
D02*
G37*
G36*
X9100Y27880D02*
Y27150D01*
X9830D01*
X9828Y27162D01*
X9727Y27406D01*
X9566Y27616D01*
X9356Y27777D01*
X9112Y27878D01*
X9100Y27880D01*
D02*
G37*
G36*
X8600D02*
X8588Y27878D01*
X8344Y27777D01*
X8134Y27616D01*
X7973Y27406D01*
X7872Y27162D01*
X7870Y27150D01*
X8600D01*
Y27880D01*
D02*
G37*
G36*
Y26650D02*
X7870D01*
X7872Y26638D01*
X7973Y26394D01*
X8134Y26184D01*
X8344Y26023D01*
X8588Y25922D01*
X8600Y25920D01*
Y26650D01*
D02*
G37*
G36*
X9830D02*
X9100D01*
Y25920D01*
X9112Y25922D01*
X9356Y26023D01*
X9566Y26184D01*
X9727Y26394D01*
X9828Y26638D01*
X9830Y26650D01*
D02*
G37*
G36*
X18650Y29099D02*
X17150D01*
Y27299D01*
Y25600D01*
X18100D01*
Y25209D01*
X17839Y25174D01*
X17596Y25073D01*
X17387Y24913D01*
X17226Y24704D01*
X17126Y24461D01*
X17091Y24200D01*
X17126Y23939D01*
X17226Y23696D01*
X17387Y23487D01*
X17596Y23326D01*
X17641Y23308D01*
Y23093D01*
X17565Y23035D01*
X17445Y22878D01*
X17369Y22696D01*
X17344Y22500D01*
X17369Y22304D01*
X17445Y22122D01*
X17565Y21965D01*
X17722Y21845D01*
X17904Y21769D01*
X18100Y21744D01*
X18296Y21769D01*
X18478Y21845D01*
X18635Y21965D01*
X18755Y22122D01*
X18831Y22304D01*
X18856Y22500D01*
X18831Y22696D01*
X18755Y22878D01*
X18635Y23035D01*
X18559Y23093D01*
Y23308D01*
X18604Y23326D01*
X18813Y23487D01*
X18973Y23696D01*
X19074Y23939D01*
X19109Y24200D01*
X19074Y24461D01*
X19055Y24507D01*
X19490Y24941D01*
X19783D01*
X19846Y24814D01*
X19763Y24706D01*
X19662Y24462D01*
X19660Y24450D01*
X21620D01*
X21618Y24462D01*
X21517Y24706D01*
X21356Y24916D01*
X21146Y25077D01*
X20902Y25178D01*
X20640Y25213D01*
X20590Y25206D01*
X20534Y25320D01*
X20964Y25750D01*
X21500D01*
Y27449D01*
X21500D01*
Y28949D01*
X18650D01*
Y29099D01*
D02*
G37*
G36*
X21620Y23950D02*
X20890D01*
Y23220D01*
X20902Y23222D01*
X21146Y23323D01*
X21356Y23484D01*
X21517Y23694D01*
X21618Y23938D01*
X21620Y23950D01*
D02*
G37*
G36*
X20390D02*
X19660D01*
X19662Y23938D01*
X19763Y23694D01*
X19924Y23484D01*
X20134Y23323D01*
X20378Y23222D01*
X20390Y23220D01*
Y23950D01*
D02*
G37*
G36*
X20558Y21351D02*
X19904D01*
Y20597D01*
X20558D01*
Y21351D01*
D02*
G37*
G36*
X2250Y20520D02*
Y19790D01*
X2980D01*
X2978Y19802D01*
X2877Y20046D01*
X2716Y20256D01*
X2506Y20417D01*
X2262Y20518D01*
X2250Y20520D01*
D02*
G37*
G36*
X1750D02*
X1738Y20518D01*
X1494Y20417D01*
X1284Y20256D01*
X1123Y20046D01*
X1022Y19802D01*
X1020Y19790D01*
X1750D01*
Y20520D01*
D02*
G37*
G36*
Y19290D02*
X1020D01*
X1022Y19278D01*
X1123Y19034D01*
X1284Y18824D01*
X1494Y18663D01*
X1738Y18562D01*
X1750Y18560D01*
Y19290D01*
D02*
G37*
G36*
X2980D02*
X2250D01*
Y18560D01*
X2262Y18562D01*
X2506Y18663D01*
X2716Y18824D01*
X2877Y19034D01*
X2978Y19278D01*
X2980Y19290D01*
D02*
G37*
G36*
X15704Y13304D02*
X15200D01*
Y12800D01*
X15704D01*
Y13304D01*
D02*
G37*
G36*
X1250Y12850D02*
X746D01*
Y12346D01*
X1250D01*
Y12850D01*
D02*
G37*
G36*
X18500Y10800D02*
X17846D01*
Y10046D01*
X18500D01*
Y10800D01*
D02*
G37*
G36*
X15600Y8854D02*
Y8200D01*
X16504D01*
Y8854D01*
X15600D01*
D02*
G37*
G36*
X16504Y7700D02*
X15600D01*
Y7046D01*
X16504D01*
Y7700D01*
D02*
G37*
G36*
X8354Y6554D02*
X7750D01*
Y5550D01*
X8354D01*
Y6554D01*
D02*
G37*
G36*
X7250D02*
X6646D01*
Y5550D01*
X7250D01*
Y6554D01*
D02*
G37*
G36*
X8354Y5050D02*
X7750D01*
Y4046D01*
X8354D01*
Y5050D01*
D02*
G37*
G36*
X7250D02*
X6646D01*
Y4046D01*
X7250D01*
Y5050D01*
D02*
G37*
G36*
X5400Y4525D02*
Y2950D01*
X6062D01*
Y3650D01*
X6031Y3886D01*
X5940Y4106D01*
X5795Y4295D01*
X5606Y4440D01*
X5400Y4525D01*
D02*
G37*
G36*
X4900D02*
X4694Y4440D01*
X4505Y4295D01*
X4360Y4106D01*
X4269Y3886D01*
X4238Y3650D01*
Y2950D01*
X4900D01*
Y4525D01*
D02*
G37*
G36*
X17100D02*
Y2950D01*
X17762D01*
Y3650D01*
X17731Y3886D01*
X17640Y4106D01*
X17495Y4295D01*
X17306Y4440D01*
X17100Y4525D01*
D02*
G37*
G36*
X16600D02*
X16394Y4440D01*
X16205Y4295D01*
X16060Y4106D01*
X15969Y3886D01*
X15938Y3650D01*
Y2950D01*
X16600D01*
Y4525D01*
D02*
G37*
G36*
X13250Y3507D02*
X13041Y3479D01*
X12847Y3399D01*
X12679Y3271D01*
X12551Y3103D01*
X12471Y2909D01*
X12443Y2700D01*
X12471Y2491D01*
X12551Y2297D01*
X12679Y2129D01*
X12847Y2001D01*
X13041Y1921D01*
X13250Y1893D01*
X13459Y1921D01*
X13653Y2001D01*
X13821Y2129D01*
X13949Y2297D01*
X14029Y2491D01*
X14057Y2700D01*
X14029Y2909D01*
X13949Y3103D01*
X13821Y3271D01*
X13653Y3399D01*
X13459Y3479D01*
X13250Y3507D01*
D02*
G37*
G36*
X8750D02*
X8541Y3479D01*
X8347Y3399D01*
X8179Y3271D01*
X8051Y3103D01*
X7971Y2909D01*
X7943Y2700D01*
X7971Y2491D01*
X8051Y2297D01*
X8179Y2129D01*
X8347Y2001D01*
X8541Y1921D01*
X8750Y1893D01*
X8959Y1921D01*
X9153Y2001D01*
X9321Y2129D01*
X9449Y2297D01*
X9529Y2491D01*
X9557Y2700D01*
X9529Y2909D01*
X9449Y3103D01*
X9321Y3271D01*
X9153Y3399D01*
X8959Y3479D01*
X8750Y3507D01*
D02*
G37*
G36*
X17762Y2450D02*
X17100D01*
Y875D01*
X17306Y960D01*
X17495Y1105D01*
X17640Y1294D01*
X17731Y1514D01*
X17762Y1750D01*
Y2450D01*
D02*
G37*
G36*
X6062Y2450D02*
X5400D01*
Y875D01*
X5606Y960D01*
X5795Y1105D01*
X5940Y1294D01*
X6031Y1514D01*
X6062Y1750D01*
Y2450D01*
D02*
G37*
G36*
X4900D02*
X4238D01*
Y1750D01*
X4269Y1514D01*
X4360Y1294D01*
X4505Y1105D01*
X4694Y960D01*
X4900Y875D01*
Y2450D01*
D02*
G37*
G36*
X16600Y2450D02*
X15938D01*
Y1750D01*
X15969Y1514D01*
X16060Y1294D01*
X16205Y1105D01*
X16394Y960D01*
X16600Y875D01*
Y2450D01*
D02*
G37*
%LPD*%
G36*
X11964Y20317D02*
X11963D01*
Y19309D01*
Y18496D01*
Y17709D01*
Y17121D01*
X11959D01*
Y16863D01*
X12950D01*
Y16363D01*
X11959D01*
Y16105D01*
X11963D01*
Y15296D01*
Y14678D01*
X8937D01*
Y14682D01*
X8679D01*
Y13692D01*
X8179D01*
Y14682D01*
X7921D01*
Y14678D01*
X5707D01*
Y15296D01*
Y16109D01*
Y16896D01*
Y17709D01*
Y18496D01*
Y19309D01*
Y20097D01*
Y20935D01*
X11964D01*
Y20317D01*
D02*
G37*
D10*
X10854Y46600D02*
D03*
X12854D02*
D03*
X6854D02*
D03*
X8854D02*
D03*
X14854D02*
D03*
X18854D02*
D03*
X16854D02*
D03*
X16854Y31000D02*
D03*
X18854D02*
D03*
X14854D02*
D03*
X8854D02*
D03*
X6854D02*
D03*
X10854D02*
D03*
X12854D02*
D03*
D11*
X11300Y8780D02*
D03*
Y7400D02*
D03*
X10000Y8780D02*
D03*
Y7400D02*
D03*
D12*
X13250Y10850D02*
D03*
Y7650D02*
D03*
X1500Y14700D02*
D03*
Y13100D02*
D03*
X15073Y18500D02*
D03*
Y16900D02*
D03*
D13*
X17900Y26500D02*
D03*
X15600D02*
D03*
X17900Y28199D02*
D03*
X15600D02*
D03*
D14*
X10875Y27724D02*
D03*
X12575D02*
D03*
X19100Y28199D02*
D03*
X20800D02*
D03*
X19100Y26500D02*
D03*
X20800D02*
D03*
D15*
X6539Y11650D02*
D03*
X8139D02*
D03*
X13350Y12550D02*
D03*
X14950D02*
D03*
D16*
X20450Y11050D02*
D03*
X18750D02*
D03*
X17954Y20347D02*
D03*
X19654D02*
D03*
D17*
X15350Y7950D02*
D03*
X15350Y10850D02*
D03*
D18*
X13550Y49550D02*
D03*
X16450D02*
D03*
D19*
X3000Y14750D02*
D03*
Y13050D02*
D03*
D20*
X12950Y15013D02*
D03*
Y15800D02*
D03*
Y16613D02*
D03*
Y17400D02*
D03*
Y18213D02*
D03*
Y19000D02*
D03*
Y19813D02*
D03*
X4720Y20601D02*
D03*
Y19813D02*
D03*
Y19000D02*
D03*
Y18213D02*
D03*
Y17400D02*
D03*
Y16613D02*
D03*
Y15800D02*
D03*
Y15013D02*
D03*
D21*
X12950Y20601D02*
D03*
D22*
X11629Y21921D02*
D03*
X10842D02*
D03*
X10029D02*
D03*
X9242D02*
D03*
X8429D02*
D03*
X7641D02*
D03*
X6829D02*
D03*
X6041D02*
D03*
Y13692D02*
D03*
X6829D02*
D03*
X7641D02*
D03*
X8429D02*
D03*
X9242D02*
D03*
X10029D02*
D03*
X10842D02*
D03*
X11629D02*
D03*
D23*
X17950Y13300D02*
D03*
Y18100D02*
D03*
X20450D02*
D03*
Y13300D02*
D03*
D24*
X14500Y5300D02*
D03*
X12000D02*
D03*
X7500D02*
D03*
X10000D02*
D03*
D25*
X20600Y77900D02*
Y82750D01*
X4050Y77900D02*
X20600D01*
X4050Y73100D02*
Y77900D01*
X20600Y60050D02*
Y64450D01*
X4050D02*
X20600D01*
X4050D02*
Y68800D01*
X20600D02*
Y73100D01*
X4050Y68800D02*
X20600D01*
X4050Y73100D02*
X20600D01*
X1800Y82750D02*
X20600D01*
X1800Y55700D02*
Y82750D01*
X4050Y60050D02*
X20600D01*
X4050Y55800D02*
Y60050D01*
X18854Y46600D02*
Y55800D01*
X4050D02*
X18854D01*
D26*
X3881Y19813D02*
X4720D01*
X3450Y20244D02*
X3881Y19813D01*
X9128Y49350D02*
X10854Y47624D01*
X5479Y49350D02*
X9128D01*
X3950Y47821D02*
X5479Y49350D01*
X7779Y48700D02*
X8854Y47625D01*
X6104Y48700D02*
X7779D01*
X5254Y47850D02*
X6104Y48700D01*
X8854Y46600D02*
Y47625D01*
X10854Y46600D02*
Y47624D01*
X3950Y45600D02*
Y47821D01*
X2550Y44200D02*
X3950Y45600D01*
X3250Y43796D02*
X5254Y45800D01*
X3900Y43162D02*
X6854Y46116D01*
X4491Y20651D02*
X4500Y20660D01*
X4238Y20601D02*
X4491Y20651D01*
X13850Y17400D02*
X14950Y18500D01*
X12950Y17400D02*
X13850D01*
X8429Y11904D02*
Y13692D01*
X8175Y11650D02*
X8429Y11904D01*
X3000Y14750D02*
X3263Y15013D01*
X2950Y14700D02*
X3000Y14750D01*
X3263Y15013D02*
X4720D01*
X1500Y14700D02*
X2950D01*
X3000Y13050D02*
X4100Y11950D01*
X10000Y8780D02*
Y10750D01*
X9242Y11508D02*
X10000Y10750D01*
X9242Y11508D02*
Y13692D01*
X10029Y11836D02*
X11300Y10565D01*
X10029Y11836D02*
Y13692D01*
X11300Y8800D02*
Y10565D01*
X17950Y18100D02*
X17954Y18104D01*
Y20347D01*
X12050Y12550D02*
X13350D01*
X11629Y12971D02*
X12050Y12550D01*
X11629Y12971D02*
Y13692D01*
X17950Y17413D02*
Y18100D01*
X16337Y15800D02*
X17950Y17413D01*
X12950Y15800D02*
X16337D01*
X20450Y11050D02*
Y13300D01*
X19037Y15013D02*
X20450Y13600D01*
X12950Y15013D02*
X19037D01*
X20450Y13300D02*
Y13600D01*
X6854Y29150D02*
Y31000D01*
X8854Y46200D02*
Y46600D01*
X5254Y45800D02*
Y47850D01*
X7641Y12804D02*
Y13692D01*
X12800Y16613D02*
X12950D01*
X14987D01*
X6787Y11950D02*
X7641Y12804D01*
X1500Y14700D02*
Y16500D01*
X2000Y17000D01*
X11629Y21921D02*
Y22809D01*
X13020Y24200D01*
X12950Y20601D02*
X13433D01*
X13850Y21018D01*
Y22480D01*
X15570Y24200D01*
X10029Y21921D02*
X10100Y21992D01*
X8429Y21921D02*
Y23879D01*
X10100Y21992D02*
Y24569D01*
X10842Y21921D02*
Y24392D01*
X6704Y46116D02*
Y47050D01*
X7641Y21921D02*
Y25209D01*
X3900Y28950D02*
Y43162D01*
Y28950D02*
X7641Y25209D01*
X6829Y21921D02*
Y24971D01*
X3250Y28550D02*
Y43796D01*
Y28550D02*
X6829Y24971D01*
X10704Y45400D02*
Y46750D01*
X6041Y21921D02*
Y24709D01*
X2550Y28200D02*
Y44200D01*
Y28200D02*
X6041Y24709D01*
X3450Y20244D02*
Y25700D01*
X4500Y20660D02*
Y24450D01*
X8850Y24360D02*
X10875Y26385D01*
Y27724D01*
X8429Y23879D02*
X8900Y24350D01*
X10842Y24392D02*
X11950Y25500D01*
X10100Y24569D02*
X11831Y26300D01*
X13800D01*
X14453Y26953D01*
Y27416D01*
X15236Y28199D01*
X15600D01*
X11950Y25500D02*
X14600D01*
X15600Y26500D01*
X18100Y24200D02*
X19300Y25400D01*
X18100Y22500D02*
Y24200D01*
X17900Y28199D02*
X19100D01*
X17900Y26500D02*
X19100D01*
X19300Y25400D02*
X19965D01*
X20800Y26235D01*
X4100Y11950D02*
X6787D01*
X20800Y26235D02*
Y28199D01*
D27*
X12300Y10850D02*
X15350D01*
X10842Y12308D02*
X12300Y10850D01*
X14500Y5300D02*
Y6037D01*
X13250Y7287D02*
X14500Y6037D01*
X13250Y7287D02*
Y7650D01*
X15350Y10850D02*
X15700D01*
X10842Y12308D02*
Y13692D01*
X15700Y10850D02*
X15700Y10850D01*
X8854Y31000D02*
X8854Y31000D01*
X8854Y29200D02*
Y31000D01*
X10000Y5300D02*
Y7400D01*
X11300Y6750D02*
Y7400D01*
Y6750D02*
X12000Y6050D01*
Y5300D02*
Y6050D01*
X16854Y46600D02*
Y49550D01*
D28*
X2000Y19540D02*
D03*
X8850Y26900D02*
D03*
X15560Y24200D02*
D03*
X18100D02*
D03*
X20640D02*
D03*
D29*
X2000Y17000D02*
D03*
X8850Y24360D02*
D03*
D30*
X16850Y2700D02*
D03*
X5150D02*
D03*
D31*
X13020Y24200D02*
D03*
D32*
X21150Y44200D02*
D03*
X15900Y50800D02*
D03*
X1550Y12000D02*
D03*
X2700Y2750D02*
D03*
X15050Y19450D02*
D03*
X16394Y17654D02*
D03*
X8150Y10500D02*
D03*
X13550Y13450D02*
D03*
X6854Y29150D02*
D03*
X1200Y36300D02*
D03*
X20694Y29691D02*
D03*
X19654Y21800D02*
D03*
X1200Y49400D02*
D03*
X18750Y9650D02*
D03*
X16115Y13900D02*
D03*
X19250Y2700D02*
D03*
X12350Y49550D02*
D03*
X8854Y29200D02*
D03*
X5600Y11500D02*
D03*
X7500Y7150D02*
D03*
X1200Y23650D02*
D03*
X17039Y7950D02*
D03*
X3475Y25700D02*
D03*
X4500Y24450D02*
D03*
X13503Y27724D02*
D03*
X15300Y21800D02*
D03*
X18100Y22500D02*
D03*
D33*
X13250Y2700D02*
D03*
X8750D02*
D03*
M02*
