G04 Layer_Color=32896*
%FSLAX43Y43*%
%MOMM*%
G71*
G01*
G75*
%ADD12C,0.500*%
%ADD16C,0.250*%
%ADD17C,0.254*%
%ADD47C,0.200*%
%ADD48C,0.203*%
%ADD79C,0.152*%
D12*
X47175Y22365D02*
X48275D01*
X38975Y35575D02*
X40075Y35575D01*
D16*
X40695Y23810D02*
G03*
X40695Y23810I-125J0D01*
G01*
X40215Y29400D02*
G03*
X40215Y29400I-125J0D01*
G01*
X21502Y28000D02*
G03*
X21502Y28000I-125J0D01*
G01*
X16791Y30880D02*
G03*
X16791Y30880I-125J0D01*
G01*
X33525Y64954D02*
G03*
X33525Y64954I-125J0D01*
G01*
D17*
X34991Y56212D02*
X35245Y56466D01*
X35753D01*
X36007Y56212D01*
Y55197D01*
X35753Y54943D01*
X35245D01*
X34991Y55197D01*
X34483Y54943D02*
X33975D01*
X34229D01*
Y56466D01*
X34483Y56212D01*
X32198Y54943D02*
X33214D01*
X32198Y55958D01*
Y56212D01*
X32452Y56466D01*
X32960D01*
X33214Y56212D01*
X46337Y34073D02*
X46591Y34327D01*
X47099D01*
X47353Y34073D01*
Y33058D01*
X47099Y32804D01*
X46591D01*
X46337Y33058D01*
X45829Y32804D02*
X45321D01*
X45575D01*
Y34327D01*
X45829Y34073D01*
X43798Y32804D02*
Y34327D01*
X44560Y33565D01*
X43544D01*
X42654Y26809D02*
Y28333D01*
X41892D01*
X41638Y28079D01*
Y27571D01*
X41892Y27317D01*
X42654D01*
X42146D02*
X41638Y26809D01*
X41130D02*
X40622D01*
X40876D01*
Y28333D01*
X41130Y28079D01*
X38845Y26809D02*
X39861D01*
X38845Y27825D01*
Y28079D01*
X39099Y28333D01*
X39607D01*
X39861Y28079D01*
X48453Y29799D02*
Y28276D01*
X47692D01*
X47438Y28530D01*
Y29545D01*
X47692Y29799D01*
X48453D01*
X46168Y28276D02*
Y29799D01*
X46930Y29038D01*
X45914D01*
X17785Y32923D02*
X18039Y33177D01*
X18547D01*
X18800Y32923D01*
Y31908D01*
X18547Y31654D01*
X18039D01*
X17785Y31908D01*
X17277Y31654D02*
X16769D01*
X17023D01*
Y33177D01*
X17277Y32923D01*
X12025Y38723D02*
X12279Y38977D01*
X12786D01*
X13040Y38723D01*
Y37707D01*
X12786Y37453D01*
X12279D01*
X12025Y37707D01*
X10501Y37453D02*
X11517D01*
X10501Y38469D01*
Y38723D01*
X10755Y38977D01*
X11263D01*
X11517Y38723D01*
X14330Y37420D02*
Y38943D01*
X13568D01*
X13314Y38689D01*
Y38181D01*
X13568Y37927D01*
X14330D01*
X13822D02*
X13314Y37420D01*
X12807Y38689D02*
X12553Y38943D01*
X12045D01*
X11791Y38689D01*
Y38435D01*
X12045Y38181D01*
X12299D01*
X12045D01*
X11791Y37927D01*
Y37674D01*
X12045Y37420D01*
X12553D01*
X12807Y37674D01*
X9041Y44272D02*
Y45796D01*
X8279D01*
X8026Y45542D01*
Y45034D01*
X8279Y44780D01*
X9041D01*
X8533D02*
X8026Y44272D01*
X7518D02*
X7010D01*
X7264D01*
Y45796D01*
X7518Y45542D01*
X5486Y44272D02*
Y45796D01*
X6248Y45034D01*
X5232D01*
X22204Y42372D02*
Y41103D01*
X21950Y40849D01*
X21442D01*
X21188Y41103D01*
Y42372D01*
X20681Y40849D02*
X20173D01*
X20427D01*
Y42372D01*
X20681Y42118D01*
X22315Y30544D02*
Y29274D01*
X22061Y29020D01*
X21553D01*
X21299Y29274D01*
Y30544D01*
X19776D02*
X20791D01*
Y29782D01*
X20284Y30036D01*
X20030D01*
X19776Y29782D01*
Y29274D01*
X20030Y29020D01*
X20538D01*
X20791Y29274D01*
X18939Y66180D02*
Y64910D01*
X18685Y64656D01*
X18177D01*
X17923Y64910D01*
Y66180D01*
X16654Y64656D02*
Y66180D01*
X17415Y65418D01*
X16400D01*
X45152Y65294D02*
Y64024D01*
X44899Y63770D01*
X44391D01*
X44137Y64024D01*
Y65294D01*
X42613Y63770D02*
X43629D01*
X42613Y64786D01*
Y65040D01*
X42867Y65294D01*
X43375D01*
X43629Y65040D01*
X35999Y56431D02*
Y57955D01*
X35237D01*
X34983Y57701D01*
Y57193D01*
X35237Y56939D01*
X35999D01*
X35491D02*
X34983Y56431D01*
X34475D02*
X33967D01*
X34221D01*
Y57955D01*
X34475Y57701D01*
X33206D02*
X32952Y57955D01*
X32444D01*
X32190Y57701D01*
Y56685D01*
X32444Y56431D01*
X32952D01*
X33206Y56685D01*
Y57701D01*
X35999Y53434D02*
Y54957D01*
X35237D01*
X34983Y54703D01*
Y54196D01*
X35237Y53942D01*
X35999D01*
X35491D02*
X34983Y53434D01*
X34475Y53688D02*
X34221Y53434D01*
X33714D01*
X33460Y53688D01*
Y54703D01*
X33714Y54957D01*
X34221D01*
X34475Y54703D01*
Y54450D01*
X34221Y54196D01*
X33460D01*
X39758Y65014D02*
Y66538D01*
X38996D01*
X38742Y66284D01*
Y65776D01*
X38996Y65522D01*
X39758D01*
X39250D02*
X38742Y65014D01*
X37219Y66538D02*
X38235D01*
Y65776D01*
X37727Y66030D01*
X37473D01*
X37219Y65776D01*
Y65268D01*
X37473Y65014D01*
X37981D01*
X38235Y65268D01*
X34755Y67769D02*
Y69292D01*
X33993D01*
X33740Y69038D01*
Y68531D01*
X33993Y68277D01*
X34755D01*
X34247D02*
X33740Y67769D01*
X32470D02*
Y69292D01*
X33232Y68531D01*
X32216D01*
X37267Y73368D02*
Y74892D01*
X36505D01*
X36251Y74638D01*
Y74130D01*
X36505Y73876D01*
X37267D01*
X36759D02*
X36251Y73368D01*
X34728D02*
X35743D01*
X34728Y74384D01*
Y74638D01*
X34982Y74892D01*
X35489D01*
X35743Y74638D01*
X44279Y73372D02*
Y74895D01*
X43517D01*
X43263Y74641D01*
Y74134D01*
X43517Y73880D01*
X44279D01*
X43771D02*
X43263Y73372D01*
X42756D02*
X42248D01*
X42502D01*
Y74895D01*
X42756Y74641D01*
X5098Y69358D02*
Y67834D01*
X4082D01*
X2558D02*
X3574D01*
X2558Y68850D01*
Y69104D01*
X2812Y69358D01*
X3320D01*
X3574Y69104D01*
X36541Y67770D02*
Y66247D01*
X35779D01*
X35525Y66501D01*
Y67516D01*
X35779Y67770D01*
X36541D01*
X35018Y67516D02*
X34764Y67770D01*
X34256D01*
X34002Y67516D01*
Y67262D01*
X34256Y67008D01*
X34510D01*
X34256D01*
X34002Y66755D01*
Y66501D01*
X34256Y66247D01*
X34764D01*
X35018Y66501D01*
X16626Y30086D02*
X16880Y30340D01*
X17387D01*
X17641Y30086D01*
Y29071D01*
X17387Y28817D01*
X16880D01*
X16626Y29071D01*
X16118Y28817D02*
X15610D01*
X15864D01*
Y30340D01*
X16118Y30086D01*
X14848D02*
X14594Y30340D01*
X14087D01*
X13833Y30086D01*
Y29832D01*
X14087Y29579D01*
X13833Y29325D01*
Y29071D01*
X14087Y28817D01*
X14594D01*
X14848Y29071D01*
Y29325D01*
X14594Y29579D01*
X14848Y29832D01*
Y30086D01*
X14594Y29579D02*
X14087D01*
X22798Y29934D02*
X23052Y30188D01*
X23560D01*
X23814Y29934D01*
Y28918D01*
X23560Y28664D01*
X23052D01*
X22798Y28918D01*
X22290Y28664D02*
X21782D01*
X22036D01*
Y30188D01*
X22290Y29934D01*
X21020Y30188D02*
X20005D01*
Y29934D01*
X21020Y28918D01*
Y28664D01*
X8019Y67538D02*
X8273Y67792D01*
X8781D01*
X9035Y67538D01*
Y66523D01*
X8781Y66269D01*
X8273D01*
X8019Y66523D01*
X7511Y66269D02*
X7003D01*
X7257D01*
Y67792D01*
X7511Y67538D01*
X5226Y67792D02*
X5734Y67538D01*
X6242Y67031D01*
Y66523D01*
X5988Y66269D01*
X5480D01*
X5226Y66523D01*
Y66777D01*
X5480Y67031D01*
X6242D01*
X31868Y57510D02*
X32122Y57764D01*
X32630D01*
X32883Y57510D01*
Y56494D01*
X32630Y56240D01*
X32122D01*
X31868Y56494D01*
X31360Y56240D02*
X30852D01*
X31106D01*
Y57764D01*
X31360Y57510D01*
X30090Y56240D02*
X29583D01*
X29836D01*
Y57764D01*
X30090Y57510D01*
X47388Y63135D02*
X47642Y63389D01*
X48150D01*
X48404Y63135D01*
Y62119D01*
X48150Y61865D01*
X47642D01*
X47388Y62119D01*
X46880Y61865D02*
X46372D01*
X46626D01*
Y63389D01*
X46880Y63135D01*
X45611D02*
X45357Y63389D01*
X44849D01*
X44595Y63135D01*
Y62119D01*
X44849Y61865D01*
X45357D01*
X45611Y62119D01*
Y63135D01*
X34970Y59576D02*
X35224Y59830D01*
X35732D01*
X35986Y59576D01*
Y58561D01*
X35732Y58307D01*
X35224D01*
X34970Y58561D01*
X34463D02*
X34209Y58307D01*
X33701D01*
X33447Y58561D01*
Y59576D01*
X33701Y59830D01*
X34209D01*
X34463Y59576D01*
Y59322D01*
X34209Y59068D01*
X33447D01*
X36520Y64481D02*
X36774Y64735D01*
X37282D01*
X37536Y64481D01*
Y63465D01*
X37282Y63211D01*
X36774D01*
X36520Y63465D01*
X36012Y64735D02*
X34996D01*
Y64481D01*
X36012Y63465D01*
Y63211D01*
X44442Y56378D02*
X44695Y56632D01*
X45203D01*
X45457Y56378D01*
Y55363D01*
X45203Y55109D01*
X44695D01*
X44442Y55363D01*
X42918Y56632D02*
X43426Y56378D01*
X43934Y55870D01*
Y55363D01*
X43680Y55109D01*
X43172D01*
X42918Y55363D01*
Y55616D01*
X43172Y55870D01*
X43934D01*
X49547Y59579D02*
X49801Y59833D01*
X50309D01*
X50563Y59579D01*
Y58563D01*
X50309Y58309D01*
X49801D01*
X49547Y58563D01*
X48023Y59833D02*
X49039D01*
Y59071D01*
X48531Y59325D01*
X48277D01*
X48023Y59071D01*
Y58563D01*
X48277Y58309D01*
X48785D01*
X49039Y58563D01*
X49547Y57292D02*
X49801Y57546D01*
X50309D01*
X50563Y57292D01*
Y56276D01*
X50309Y56022D01*
X49801D01*
X49547Y56276D01*
X48277Y56022D02*
Y57546D01*
X49039Y56784D01*
X48023D01*
X38727Y67789D02*
X38980Y68043D01*
X39488D01*
X39742Y67789D01*
Y66774D01*
X39488Y66520D01*
X38980D01*
X38727Y66774D01*
X38219Y67789D02*
X37965Y68043D01*
X37457D01*
X37203Y67789D01*
Y67535D01*
X37457Y67281D01*
X37711D01*
X37457D01*
X37203Y67027D01*
Y66774D01*
X37457Y66520D01*
X37965D01*
X38219Y66774D01*
X42705Y25539D02*
Y26555D01*
X42959Y26809D01*
X43467D01*
X43721Y26555D01*
Y25539D01*
X43467Y25285D01*
X42959D01*
X43213Y25793D02*
X42705Y25285D01*
X42959D02*
X42705Y25539D01*
X42197Y25285D02*
X41689D01*
X41943D01*
Y26809D01*
X42197Y26555D01*
X42984Y37782D02*
X43238Y38036D01*
X43746D01*
X44000Y37782D01*
Y36766D01*
X43746Y36512D01*
X43238D01*
X42984Y36766D01*
X42477Y36512D02*
X41969D01*
X42223D01*
Y38036D01*
X42477Y37782D01*
X40191Y38036D02*
X41207D01*
Y37274D01*
X40699Y37528D01*
X40445D01*
X40191Y37274D01*
Y36766D01*
X40445Y36512D01*
X40953D01*
X41207Y36766D01*
X48394Y60359D02*
Y61883D01*
X47632D01*
X47378Y61629D01*
Y61121D01*
X47632Y60867D01*
X48394D01*
X47886D02*
X47378Y60359D01*
X46871Y61629D02*
X46617Y61883D01*
X46109D01*
X45855Y61629D01*
Y61375D01*
X46109Y61121D01*
X45855Y60867D01*
Y60613D01*
X46109Y60359D01*
X46617D01*
X46871Y60613D01*
Y60867D01*
X46617Y61121D01*
X46871Y61375D01*
Y61629D01*
X46617Y61121D02*
X46109D01*
X35999Y61426D02*
Y62950D01*
X35237D01*
X34983Y62696D01*
Y62188D01*
X35237Y61934D01*
X35999D01*
X35491D02*
X34983Y61426D01*
X33460Y62950D02*
X33967Y62696D01*
X34475Y62188D01*
Y61680D01*
X34221Y61426D01*
X33714D01*
X33460Y61680D01*
Y61934D01*
X33714Y62188D01*
X34475D01*
X35999Y59801D02*
Y61324D01*
X35237D01*
X34983Y61070D01*
Y60562D01*
X35237Y60308D01*
X35999D01*
X35491D02*
X34983Y59801D01*
X34475Y61324D02*
X33460D01*
Y61070D01*
X34475Y60055D01*
Y59801D01*
X40241Y38112D02*
Y36588D01*
X39479D01*
X39225Y36842D01*
Y37858D01*
X39479Y38112D01*
X40241D01*
X37702D02*
X38717D01*
Y37350D01*
X38209Y37604D01*
X37956D01*
X37702Y37350D01*
Y36842D01*
X37956Y36588D01*
X38463D01*
X38717Y36842D01*
X37548Y34480D02*
Y32956D01*
X36533D01*
X36025D02*
X35517D01*
X35771D01*
Y34480D01*
X36025Y34226D01*
X43797Y32879D02*
Y31610D01*
X43543Y31356D01*
X43035D01*
X42781Y31610D01*
Y32879D01*
X42273Y32625D02*
X42019Y32879D01*
X41512D01*
X41258Y32625D01*
Y32371D01*
X41512Y32118D01*
X41765D01*
X41512D01*
X41258Y31864D01*
Y31610D01*
X41512Y31356D01*
X42019D01*
X42273Y31610D01*
X45676Y32448D02*
Y33972D01*
X44915D01*
X44661Y33718D01*
Y33210D01*
X44915Y32956D01*
X45676D01*
X45169D02*
X44661Y32448D01*
X44153D02*
X43645D01*
X43899D01*
Y33972D01*
X44153Y33718D01*
X42883Y32448D02*
X42375D01*
X42629D01*
Y33972D01*
X42883Y33718D01*
X45676Y29908D02*
Y31432D01*
X44915D01*
X44661Y31178D01*
Y30670D01*
X44915Y30416D01*
X45676D01*
X45169D02*
X44661Y29908D01*
X44153D02*
X43645D01*
X43899D01*
Y31432D01*
X44153Y31178D01*
X42883D02*
X42629Y31432D01*
X42122D01*
X41868Y31178D01*
Y30924D01*
X42122Y30670D01*
X42375D01*
X42122D01*
X41868Y30416D01*
Y30162D01*
X42122Y29908D01*
X42629D01*
X42883Y30162D01*
X38692Y31278D02*
X38946Y31532D01*
X39454D01*
X39707Y31278D01*
Y30262D01*
X39454Y30008D01*
X38946D01*
X38692Y30262D01*
X38184Y30008D02*
X37676D01*
X37930D01*
Y31532D01*
X38184Y31278D01*
X36914D02*
X36660Y31532D01*
X36153D01*
X35899Y31278D01*
Y31024D01*
X36153Y30770D01*
X36407D01*
X36153D01*
X35899Y30516D01*
Y30262D01*
X36153Y30008D01*
X36660D01*
X36914Y30262D01*
X31890Y61060D02*
X32144Y61314D01*
X32652D01*
X32906Y61060D01*
Y60044D01*
X32652Y59790D01*
X32144D01*
X31890Y60044D01*
X31382Y61060D02*
X31128Y61314D01*
X30620D01*
X30366Y61060D01*
Y60806D01*
X30620Y60552D01*
X30366Y60298D01*
Y60044D01*
X30620Y59790D01*
X31128D01*
X31382Y60044D01*
Y60298D01*
X31128Y60552D01*
X31382Y60806D01*
Y61060D01*
X31128Y60552D02*
X30620D01*
X-24419Y-41320D02*
Y-43319D01*
X-23086D01*
X-21420D02*
X-22086D01*
X-22420Y-42986D01*
Y-42319D01*
X-22086Y-41986D01*
X-21420D01*
X-21087Y-42319D01*
Y-42653D01*
X-22420D01*
X-19754Y-43985D02*
X-19421D01*
X-19087Y-43652D01*
Y-41986D01*
X-20087D01*
X-20420Y-42319D01*
Y-42986D01*
X-20087Y-43319D01*
X-19087D01*
X-17421D02*
X-18088D01*
X-18421Y-42986D01*
Y-42319D01*
X-18088Y-41986D01*
X-17421D01*
X-17088Y-42319D01*
Y-42653D01*
X-18421D01*
X-16422Y-43319D02*
Y-41986D01*
X-15422D01*
X-15089Y-42319D01*
Y-43319D01*
X-13089Y-41320D02*
Y-43319D01*
X-14089D01*
X-14422Y-42986D01*
Y-42319D01*
X-14089Y-41986D01*
X-13089D01*
X-10423Y-43319D02*
X-9757D01*
X-10090D01*
Y-41986D01*
X-10423D01*
X-8757Y-43319D02*
X-7758D01*
X-7424Y-42986D01*
X-7758Y-42653D01*
X-8424D01*
X-8757Y-42319D01*
X-8424Y-41986D01*
X-7424D01*
X-4425Y-43319D02*
X-3759D01*
X-3426Y-42986D01*
Y-42319D01*
X-3759Y-41986D01*
X-4425D01*
X-4759Y-42319D01*
Y-42986D01*
X-4425Y-43319D01*
X-2759D02*
Y-41986D01*
X-1760D01*
X-1426Y-42319D01*
Y-43319D01*
X-760D02*
X-93D01*
X-427D01*
Y-41320D01*
X-760D01*
X906Y-41986D02*
Y-42986D01*
X1239Y-43319D01*
X2239D01*
Y-43652D01*
X1906Y-43985D01*
X1573D01*
X2239Y-43319D02*
Y-41986D01*
X4905D02*
X5571Y-43319D01*
X6238Y-41986D01*
X7237D02*
X7904D01*
X8237Y-42319D01*
Y-43319D01*
X7237D01*
X6904Y-42986D01*
X7237Y-42653D01*
X8237D01*
X8904Y-43319D02*
X9570D01*
X9237D01*
Y-41320D01*
X8904D01*
X10570Y-43319D02*
X11236D01*
X10903D01*
Y-41986D01*
X10570D01*
X13569Y-41320D02*
Y-43319D01*
X12569D01*
X12236Y-42986D01*
Y-42319D01*
X12569Y-41986D01*
X13569D01*
X16568Y-43319D02*
X17234D01*
X17567Y-42986D01*
Y-42319D01*
X17234Y-41986D01*
X16568D01*
X16235Y-42319D01*
Y-42986D01*
X16568Y-43319D01*
X18234D02*
Y-41986D01*
X19234D01*
X19567Y-42319D01*
Y-43319D01*
X22233Y-41320D02*
Y-43319D01*
X23232D01*
X23566Y-42986D01*
Y-41653D01*
X23232Y-41320D01*
X22233D01*
X24232Y-41986D02*
Y-43319D01*
Y-42653D01*
X24565Y-42319D01*
X24898Y-41986D01*
X25232D01*
X26231Y-43319D02*
X26898D01*
X26565D01*
Y-41986D01*
X26231D01*
X27897Y-43319D02*
X28564D01*
X28231D01*
Y-41320D01*
X27897D01*
X29564Y-43319D02*
X30230D01*
X29897D01*
Y-41320D01*
X29564D01*
X33229D02*
Y-43319D01*
X34229D01*
X34562Y-42986D01*
Y-41653D01*
X34229Y-41320D01*
X33229D01*
X35228Y-41986D02*
Y-43319D01*
Y-42653D01*
X35562Y-42319D01*
X35895Y-41986D01*
X36228D01*
X37561D02*
X38228D01*
X38561Y-42319D01*
Y-43319D01*
X37561D01*
X37228Y-42986D01*
X37561Y-42653D01*
X38561D01*
X39227Y-41986D02*
Y-42986D01*
X39560Y-43319D01*
X39894Y-42986D01*
X40227Y-43319D01*
X40560Y-42986D01*
Y-41986D01*
X41227Y-43319D02*
X41893D01*
X41560D01*
Y-41986D01*
X41227D01*
X42893Y-43319D02*
Y-41986D01*
X43892D01*
X44226Y-42319D01*
Y-43319D01*
X45558Y-43985D02*
X45892D01*
X46225Y-43652D01*
Y-41986D01*
X45225D01*
X44892Y-42319D01*
Y-42986D01*
X45225Y-43319D01*
X46225D01*
X48891D02*
X49557D01*
X49224D01*
Y-41320D01*
X48891D01*
X50890Y-41986D02*
X51557D01*
X51890Y-42319D01*
Y-43319D01*
X50890D01*
X50557Y-42986D01*
X50890Y-42653D01*
X51890D01*
X52556Y-41986D02*
Y-42986D01*
X52889Y-43319D01*
X53889D01*
Y-43652D01*
X53556Y-43985D01*
X53223D01*
X53889Y-43319D02*
Y-41986D01*
X55555Y-43319D02*
X54889D01*
X54556Y-42986D01*
Y-42319D01*
X54889Y-41986D01*
X55555D01*
X55888Y-42319D01*
Y-42653D01*
X54556D01*
X56555Y-41986D02*
Y-43319D01*
Y-42653D01*
X56888Y-42319D01*
X57221Y-41986D01*
X57555D01*
D47*
X14177Y35250D02*
X14177Y34850D01*
X13377Y35250D02*
X13377Y34850D01*
X40870Y22210D02*
Y22810D01*
Y22210D02*
X41670Y22210D01*
X43870Y22210D02*
Y22810D01*
X43070Y22210D02*
X43870Y22210D01*
X40390Y28050D02*
X43490D01*
X40390Y28350D02*
X43490D01*
Y28050D02*
Y28350D01*
X40390Y28050D02*
Y28350D01*
X20027Y24600D02*
Y27700D01*
X20327Y24600D02*
Y27700D01*
X20027Y24600D02*
X20327D01*
X20027Y27700D02*
X20327D01*
X18016Y31140D02*
Y39940D01*
X20016Y31140D02*
X20016Y39940D01*
X18016Y31140D02*
X20016Y31140D01*
X18016Y39940D02*
X20016D01*
X1900Y43767D02*
Y63800D01*
X19100D01*
Y43767D02*
Y63800D01*
X1900Y43767D02*
X19100D01*
X8100Y42119D02*
X8100Y41719D01*
X8900Y41719D02*
Y42119D01*
X43850Y32960D02*
X43850Y33760D01*
X41350Y32960D02*
Y33760D01*
X48020Y55554D02*
X48820Y55554D01*
X48020Y57154D02*
X48820Y57154D01*
X15883Y25250D02*
Y26050D01*
X17483Y25250D02*
X17483Y26050D01*
X48020Y53254D02*
X48820D01*
X48020Y54854D02*
X48820Y54854D01*
X42900Y53954D02*
X43700Y53954D01*
X42900Y52354D02*
X43700D01*
X46850Y59204D02*
X47250D01*
X46850Y58404D02*
X47250D01*
X34450Y54482D02*
X34850D01*
X34450Y55282D02*
X34850D01*
X33200Y65800D02*
X33600D01*
X33200Y66600D02*
X33600D01*
X38200Y63854D02*
X38600D01*
X38200Y63054D02*
X38600D01*
X34450Y57836D02*
X34850D01*
X34450Y58636D02*
X34850D01*
X34450Y51482D02*
X34850Y51482D01*
X34450Y52282D02*
X34850D01*
X35900Y63179D02*
X36700D01*
X36700Y64179D02*
X36700Y63179D01*
X33700Y63179D02*
X34500D01*
X33700D02*
X33700Y64179D01*
X34450Y59454D02*
X34850D01*
X34450Y60254D02*
X34850D01*
X44130Y70800D02*
Y71200D01*
X43330Y70800D02*
Y71200D01*
X37130Y70800D02*
Y71200D01*
X36330Y70800D02*
Y71200D01*
D48*
X40200Y54604D02*
X43800D01*
X40200D02*
Y62904D01*
X43800D01*
Y54604D02*
Y62904D01*
X40200Y55154D02*
X43800D01*
D79*
X46836Y27428D02*
X48639D01*
Y22552D02*
Y27428D01*
X46836Y22552D02*
X48639D01*
X46836D02*
Y27428D01*
X38611Y30512D02*
X40414Y30512D01*
X38611Y30512D02*
Y35388D01*
X40414Y35388D01*
Y30512D02*
Y35388D01*
M02*
