G04 Layer_Color=32768*
%FSLAX43Y43*%
%MOMM*%
G71*
G01*
G75*
%ADD17C,0.254*%
%ADD79C,0.152*%
D17*
X52354Y86000D02*
X58954D01*
X52354Y0D02*
X58954D01*
X58700Y48078D02*
Y86000D01*
Y0D02*
Y37109D01*
X58192Y84476D02*
X58700Y86000D01*
X59208Y84476D01*
X58700Y0D02*
X59208Y1524D01*
X58192D02*
X58700Y0D01*
X52000Y-4704D02*
Y-354D01*
X0Y-4704D02*
Y-354D01*
X31078Y-4450D02*
X52000D01*
X0D02*
X20109D01*
X50476Y-3942D02*
X52000Y-4450D01*
X50476Y-4958D02*
X52000Y-4450D01*
X0D02*
X1524Y-4958D01*
X0Y-4450D02*
X1524Y-3942D01*
D79*
X58598Y37515D02*
X58345Y37769D01*
Y38277D01*
X58598Y38531D01*
X58852D01*
X59106Y38277D01*
X59360Y38531D01*
X59614D01*
X59868Y38277D01*
Y37769D01*
X59614Y37515D01*
X59360D01*
X59106Y37769D01*
X58852Y37515D01*
X58598D01*
X59106Y37769D02*
Y38277D01*
X58345Y40054D02*
X58598Y39547D01*
X59106Y39039D01*
X59614D01*
X59868Y39293D01*
Y39800D01*
X59614Y40054D01*
X59360D01*
X59106Y39800D01*
Y39039D01*
X60122Y40816D02*
X59868Y41070D01*
X59614D01*
Y40816D01*
X59868D01*
Y41070D01*
X60122Y40816D01*
X60376Y40562D01*
X58598Y42086D02*
X58345Y42340D01*
Y42848D01*
X58598Y43101D01*
X59614D01*
X59868Y42848D01*
Y42340D01*
X59614Y42086D01*
X58598D01*
Y43609D02*
X58345Y43863D01*
Y44371D01*
X58598Y44625D01*
X59614D01*
X59868Y44371D01*
Y43863D01*
X59614Y43609D01*
X58598D01*
X59868Y45133D02*
X58852D01*
Y45387D01*
X59106Y45641D01*
X59868D01*
X59106D01*
X58852Y45895D01*
X59106Y46148D01*
X59868D01*
Y46656D02*
X58852D01*
Y46910D01*
X59106Y47164D01*
X59868D01*
X59106D01*
X58852Y47418D01*
X59106Y47672D01*
X59868D01*
X21531Y-4095D02*
X20515D01*
Y-4856D01*
X21023Y-4602D01*
X21277D01*
X21531Y-4856D01*
Y-5364D01*
X21277Y-5618D01*
X20769D01*
X20515Y-5364D01*
X23054Y-5618D02*
X22039D01*
X23054Y-4602D01*
Y-4348D01*
X22801Y-4095D01*
X22293D01*
X22039Y-4348D01*
X23816Y-5872D02*
X24070Y-5618D01*
Y-5364D01*
X23816D01*
Y-5618D01*
X24070D01*
X23816Y-5872D01*
X23562Y-6126D01*
X25086Y-4348D02*
X25340Y-4095D01*
X25848D01*
X26101Y-4348D01*
Y-5364D01*
X25848Y-5618D01*
X25340D01*
X25086Y-5364D01*
Y-4348D01*
X26609D02*
X26863Y-4095D01*
X27371D01*
X27625Y-4348D01*
Y-5364D01*
X27371Y-5618D01*
X26863D01*
X26609Y-5364D01*
Y-4348D01*
X28133Y-5618D02*
Y-4602D01*
X28387D01*
X28641Y-4856D01*
Y-5618D01*
Y-4856D01*
X28895Y-4602D01*
X29148Y-4856D01*
Y-5618D01*
X29656D02*
Y-4602D01*
X29910D01*
X30164Y-4856D01*
Y-5618D01*
Y-4856D01*
X30418Y-4602D01*
X30672Y-4856D01*
Y-5618D01*
M02*
